<svg width="424" height="419" viewBox="0 0 424 419" fill="none" xmlns="http://www.w3.org/2000/svg">
<g opacity="0.6">
<path d="M420.922 187.076C420.922 186.87 420.922 186.674 420.845 186.478C416.053 148.355 399.292 112.397 372.661 83.1094C370.551 80.7931 368.385 78.5146 366.165 76.2739L364.826 74.9954C363.476 73.6689 362.111 72.3595 360.731 71.0673L358.684 69.1909V55.0764C357.666 54.2413 356.647 53.4268 355.607 52.602C315.56 20.8089 264.666 3.34668 212.051 3.34668C159.436 3.34668 108.541 20.8089 68.4944 52.602C67.4541 53.4268 66.436 54.2413 65.4179 55.0764V69.1496L63.3705 71.0261C61.9614 72.2976 60.5965 73.6208 59.2759 74.9954L57.9368 76.2739C55.7235 78.5146 53.5581 80.7931 51.4407 83.1094C24.8035 112.391 8.0344 148.346 3.23445 186.468C3.23445 186.664 3.23445 186.859 3.15698 187.066C5.16004 189.189 6.72044 195.901 7.17417 204.376C7.27377 206.036 7.31804 207.758 7.31804 209.531C7.31804 211.305 7.31804 213.037 7.17417 214.686C6.72044 223.161 5.16004 229.873 3.15698 232.007C3.15698 232.203 3.15698 232.409 3.23445 232.605C8.03211 270.734 24.8013 306.695 51.4407 335.984C53.5102 338.304 55.7235 340.572 57.9368 342.819L59.2759 344.139C60.626 345.459 61.9909 346.765 63.3705 348.057C64.0456 348.686 64.7317 349.325 65.4179 349.933V364.017C66.436 364.852 67.4541 365.667 68.4944 366.481C108.541 398.274 159.436 415.736 212.051 415.736C264.666 415.736 315.56 398.274 355.607 366.481C356.647 365.667 357.666 364.852 358.684 364.017V349.933C359.37 349.325 360.056 348.686 360.731 348.057C362.118 346.772 363.483 345.466 364.826 344.139L366.165 342.819C368.378 340.572 370.591 338.304 372.661 335.984C399.316 306.707 416.105 270.753 420.922 232.626C420.922 232.43 420.978 232.224 421 232.028C418.997 229.894 417.436 223.182 416.983 214.707C416.883 213.057 416.839 211.325 416.839 209.552C416.839 207.778 416.839 206.057 416.983 204.397C417.381 195.912 418.942 189.2 420.922 187.076ZM107.737 89.213C105.191 91.1306 102.701 93.0999 100.289 95.1619L98.8834 96.3991L91.0482 89.0893L92.4869 87.8521C94.8994 85.79 97.3709 83.7968 99.9015 81.8722C108.947 74.965 118.708 68.9141 129.04 63.809V75.5934C121.583 79.6044 114.478 84.1585 107.792 89.213H107.737ZM128.996 89.78V112.967C127.225 114.287 125.491 115.662 123.794 117.091C123.307 117.483 122.821 117.896 122.345 118.318L107.737 104.657C108.224 104.245 108.722 103.843 109.209 103.451C111.68 101.444 114.214 99.5093 116.811 97.6466C120.751 94.8629 124.831 92.2407 129.051 89.78H128.996ZM91.513 120.442C93.5788 118.091 95.7331 115.803 97.9759 113.576C98.4186 113.132 98.8723 112.689 99.326 112.266L114.1 126.02C113.646 126.463 113.204 126.917 112.783 127.37C110.57 129.659 108.511 132 106.53 134.433C104.738 136.619 103.011 138.866 101.384 141.155V199.231L94.7445 209.542L101.384 219.852V277.938C103.022 280.227 104.738 282.464 106.53 284.65C108.515 287.083 110.599 289.441 112.783 291.723C113.204 292.177 113.646 292.62 114.1 293.073L99.326 306.827C98.8723 306.404 98.4186 305.961 97.9759 305.507C95.7626 303.28 93.5493 301.002 91.513 298.641C70.4725 274.94 58.4137 245.433 57.2064 214.697C57.14 212.985 57.1068 211.263 57.1068 209.542C57.1068 207.82 57.1068 206.098 57.2064 204.386C58.4153 173.65 70.4739 144.144 91.513 120.442V120.442ZM98.8834 322.705L100.333 323.931C102.746 325.993 105.236 327.963 107.781 329.87C114.471 334.925 121.579 339.479 129.04 343.49V355.284C118.707 350.176 108.946 344.121 99.9015 337.211C97.3636 335.279 94.892 333.286 92.4869 331.231C91.9999 330.829 91.5241 330.406 91.0482 329.994L98.8834 322.705ZM116.845 321.406C114.24 319.543 111.706 317.608 109.242 315.601C108.755 315.209 108.257 314.817 107.77 314.395L122.4 300.785C122.876 301.198 123.363 301.621 123.85 302.012C125.547 303.428 127.28 304.803 129.051 306.136V329.324C124.838 326.856 120.77 324.217 116.845 321.406ZM125.975 289.702C124.591 288.413 123.241 287.104 121.924 285.753C121.481 285.289 121.05 284.856 120.618 284.382C118.405 282.093 116.38 279.712 114.421 277.268C113.746 276.433 113.093 275.588 112.451 274.742V219.852L105.811 209.542L112.451 199.231V144.32C113.093 143.464 113.746 142.619 114.421 141.784C116.38 139.34 118.449 136.959 120.618 134.68C121.05 134.206 121.481 133.763 121.924 133.309C123.241 131.969 124.591 130.639 125.975 129.35C127.358 128.061 128.774 126.814 130.224 125.577C130.711 125.164 131.187 124.762 131.685 124.37C134.142 122.308 136.698 120.411 139.321 118.586C144.804 114.77 150.623 111.394 156.718 108.493V150.259L169.433 162.105C167.928 163.27 166.478 164.518 165.095 165.806C163.712 167.095 162.384 168.446 161.133 169.838C160.702 170.312 160.292 170.786 159.894 171.26C157.841 173.692 155.991 176.267 154.36 178.962C149.583 186.759 146.701 195.438 145.917 204.386C145.84 204.376 145.761 204.376 145.684 204.386C144.217 204.386 142.809 204.93 141.772 205.896C140.734 206.863 140.151 208.174 140.151 209.542C140.151 210.909 140.734 212.22 141.772 213.187C142.809 214.153 144.217 214.697 145.684 214.697H145.917C146.999 226.783 151.871 238.306 159.927 247.833C160.325 248.297 160.735 248.782 161.166 249.256C162.417 250.648 163.745 251.998 165.128 253.287C166.512 254.576 167.961 255.823 169.466 256.988C169.964 257.38 170.485 257.762 170.994 258.143L156.718 271.402V310.58C150.623 307.675 144.803 304.295 139.321 300.476C136.698 298.662 134.142 296.723 131.685 294.702L130.224 293.568C128.763 292.29 127.358 291.022 125.975 289.733V289.702ZM212.051 67.7784C237.073 67.7388 261.74 73.2896 283.984 83.9652V105.616C275.326 100.398 266.04 96.1452 256.317 92.9452V145.104L244.874 155.764C234.87 150.464 223.559 147.677 212.051 147.677C200.542 147.677 189.231 150.464 179.227 155.764L167.784 145.104V92.8627C158.061 96.0627 148.776 100.316 140.118 105.534V83.8827C162.369 73.2357 187.036 67.7133 212.051 67.7784V67.7784ZM140.118 70.1703V58.8293C162.768 49.4686 187.272 44.6325 212.051 44.6325C236.83 44.6325 261.334 49.4686 283.984 58.8293V70.1703C261.532 60.1395 236.95 54.9321 212.051 54.9321C187.151 54.9321 162.569 60.1395 140.118 70.1703V70.1703ZM246.8 249.689C246.291 250.081 245.771 250.462 245.24 250.813L229.326 235.987C229.901 235.667 230.432 235.337 230.997 234.956C232.618 233.916 234.133 232.739 235.523 231.44C236.92 230.147 238.183 228.736 239.297 227.223C239.698 226.725 240.067 226.205 240.404 225.666C242.267 222.839 243.62 219.746 244.41 216.511C244.568 215.923 244.694 215.328 244.786 214.727H267.096C266.104 224.08 262.368 232.998 256.295 240.503C255.908 240.997 255.509 241.534 255.089 241.956C252.625 244.801 249.843 247.394 246.789 249.689H246.8ZM177.302 249.689C174.248 247.394 171.465 244.801 169.002 241.956C168.581 241.492 168.183 240.997 167.795 240.503C161.723 232.998 157.986 224.08 156.994 214.727H179.327C179.419 215.328 179.545 215.923 179.703 216.511C180.493 219.746 181.846 222.839 183.709 225.666C184.046 226.205 184.415 226.725 184.816 227.223C185.929 228.736 187.193 230.147 188.59 231.44C189.979 232.739 191.494 233.916 193.116 234.956C193.658 235.327 194.222 235.657 194.787 235.987L178.873 250.813C178.331 250.421 177.811 250.039 177.302 249.648V249.689ZM219.51 179.405C214.609 178.347 209.514 178.347 204.614 179.405L187.416 163.383C195.074 159.835 203.51 157.988 212.062 157.988C220.614 157.988 229.05 159.835 236.707 163.383L219.51 179.405ZM227.71 194.963C229.116 196.267 230.322 197.745 231.296 199.355C231.639 199.902 231.949 200.479 232.236 201.056C233.125 202.875 233.718 204.807 233.996 206.789C234.375 209.43 234.206 212.115 233.498 214.697C233.184 215.839 232.762 216.954 232.236 218.027C231.949 218.614 231.639 219.181 231.296 219.738C230.322 221.348 229.116 222.826 227.71 224.13C226.304 225.433 224.719 226.557 222.996 227.471C222.403 227.788 221.794 228.077 221.17 228.337L212.062 219.852L202.91 228.337C202.286 228.077 201.676 227.788 201.084 227.471C199.36 226.557 197.775 225.433 196.369 224.13C194.964 222.826 193.757 221.348 192.784 219.738C192.441 219.181 192.131 218.614 191.843 218.027C191.317 216.954 190.895 215.839 190.582 214.697C189.318 210.149 189.763 205.335 191.843 201.056C192.131 200.479 192.441 199.902 192.784 199.355C194.747 196.124 197.616 193.451 201.084 191.623C201.676 191.302 202.286 191.009 202.91 190.746L205.123 192.808L212.04 199.242L218.956 192.808L221.17 190.746C221.794 191.009 222.403 191.302 222.996 191.623C224.72 192.531 226.303 193.655 227.699 194.963H227.71ZM194.776 183.148C194.199 183.462 193.641 183.807 193.105 184.179C191.484 185.215 189.969 186.389 188.578 187.684C187.182 188.98 185.918 190.396 184.805 191.911C184.404 192.41 184.035 192.93 183.698 193.468C181.833 196.291 180.48 199.381 179.692 202.613C179.534 203.201 179.408 203.797 179.316 204.397H156.994C157.979 195.043 161.717 186.123 167.795 178.622C168.183 178.116 168.581 177.591 169.002 177.158C171.465 174.313 174.248 171.72 177.302 169.425C177.811 169.033 178.331 168.662 178.862 168.312L194.776 183.148ZM204.603 239.678C209.503 240.736 214.598 240.736 219.499 239.678L236.696 255.7C229.039 259.248 220.603 261.095 212.051 261.095C203.498 261.095 195.063 259.248 187.405 255.7L204.603 239.678ZM244.775 204.386C244.683 203.786 244.557 203.191 244.399 202.603C243.611 199.37 242.258 196.281 240.392 193.458C240.056 192.92 239.687 192.4 239.286 191.901C238.172 190.385 236.909 188.97 235.512 187.674C234.122 186.378 232.607 185.205 230.986 184.168C230.45 183.796 229.892 183.452 229.315 183.137L245.229 168.312C245.76 168.662 246.28 169.033 246.789 169.425C249.843 171.72 252.625 174.313 255.089 177.158C255.509 177.632 255.908 178.116 256.295 178.622C262.374 186.123 266.111 195.043 267.096 204.397L244.775 204.386ZM140.118 348.954C162.569 358.985 187.151 364.192 212.051 364.192C236.95 364.192 261.532 358.985 283.984 348.954V360.295C261.332 369.649 236.829 374.482 212.051 374.482C187.273 374.482 162.77 369.649 140.118 360.295V348.954ZM212.051 351.346C187.028 351.39 162.36 345.839 140.118 335.159V313.56C148.776 318.771 158.062 323.017 167.784 326.21V273.979L179.227 263.319C189.231 268.619 200.542 271.406 212.051 271.406C223.559 271.406 234.87 268.619 244.874 263.319L256.317 273.979V326.21C266.04 323.017 275.325 318.771 283.984 313.56V335.159C261.738 345.825 237.07 351.362 212.051 351.305V351.346ZM267.384 310.601V271.422L253.141 258.164C253.65 257.782 254.17 257.401 254.668 257.009C256.173 255.844 257.623 254.596 259.007 253.308C260.39 252.019 261.718 250.668 262.968 249.276C263.4 248.802 263.809 248.318 264.208 247.854C272.264 238.327 277.136 226.803 278.218 214.717H278.451C279.918 214.717 281.326 214.174 282.363 213.207C283.401 212.241 283.984 210.929 283.984 209.562C283.984 208.195 283.401 206.884 282.363 205.917C281.326 204.95 279.918 204.407 278.451 204.407C278.374 204.397 278.295 204.397 278.218 204.407V204.407C277.434 195.459 274.552 186.78 269.774 178.983C268.144 176.288 266.294 173.713 264.241 171.281C263.843 170.807 263.433 170.332 263.002 169.858C261.751 168.466 260.423 167.116 259.04 165.827C257.656 164.538 256.207 163.291 254.702 162.126C254.204 161.724 253.683 161.342 253.174 160.971L267.417 147.702V108.524C273.506 111.415 279.322 114.782 284.803 118.586C287.426 120.411 289.982 122.339 292.439 124.37C292.937 124.762 293.413 125.164 293.9 125.577C295.349 126.814 296.766 128.061 298.149 129.35C299.533 130.639 300.883 131.969 302.2 133.309C302.642 133.763 303.074 134.206 303.505 134.68C305.719 136.959 307.744 139.34 309.703 141.784C310.378 142.619 311.031 143.464 311.673 144.32V199.231L318.313 209.542L311.673 219.852V274.773C311.031 275.619 310.378 276.464 309.703 277.299C307.744 279.743 305.675 282.124 303.505 284.413C303.074 284.887 302.642 285.32 302.2 285.784C300.883 287.135 299.533 288.444 298.149 289.733C296.766 291.022 295.349 292.29 293.9 293.517L292.439 294.723C289.982 296.785 287.426 298.682 284.803 300.497C279.313 304.317 273.486 307.697 267.384 310.601V310.601ZM307.257 97.6775C309.854 99.5471 312.388 101.482 314.86 103.482C315.347 103.874 315.845 104.276 316.332 104.688L301.702 118.298C301.226 117.875 300.739 117.462 300.252 117.071C298.562 115.662 296.829 114.287 295.051 112.947C294.265 112.359 293.479 111.782 292.671 111.215L295.051 108.998V89.78C299.285 92.2338 303.354 94.8663 307.257 97.6775ZM295.084 75.6243V63.809C305.416 68.9141 315.177 74.965 324.222 81.8722C326.76 83.8036 329.232 85.7969 331.637 87.8521L333.076 89.0893L325.24 96.3991L323.791 95.1619C321.378 93.0999 318.888 91.1306 316.343 89.213C309.642 84.1567 302.523 79.6026 295.051 75.5934L295.084 75.6243ZM316.365 314.457C315.878 314.879 315.38 315.271 314.893 315.663C312.422 317.677 309.887 319.612 307.29 321.467C303.373 324.251 299.315 326.873 295.117 329.334V306.116C296.888 304.803 298.621 303.428 300.318 301.992C300.805 301.6 301.292 301.177 301.768 300.765L316.365 314.457ZM295.084 343.521C302.544 339.51 309.653 334.956 316.343 329.901C318.888 327.994 321.378 326.024 323.791 323.962L325.24 322.736L333.076 330.025C332.6 330.437 332.124 330.86 331.637 331.262C329.224 333.324 326.753 335.317 324.222 337.242C315.177 344.152 305.416 350.207 295.084 355.315V343.521ZM332.622 298.672C330.552 301.033 328.394 303.311 326.159 305.538C325.716 305.992 325.262 306.435 324.809 306.858L310.035 293.104C310.489 292.651 310.931 292.207 311.352 291.754C313.565 289.465 315.649 287.107 317.604 284.681C319.397 282.495 321.113 280.258 322.75 277.969V219.852L329.39 209.542L322.75 199.231V141.155C321.124 138.866 319.43 136.619 317.604 134.433C315.623 132 313.532 129.659 311.352 127.37C310.931 126.917 310.489 126.463 310.035 126.02L324.809 112.266C325.262 112.689 325.716 113.132 326.159 113.576C328.372 115.803 330.527 118.091 332.622 120.442C353.661 144.144 365.719 173.65 366.928 204.386C366.995 206.098 367.028 207.82 367.028 209.542C367.028 211.263 367.028 212.985 366.928 214.697C365.712 245.437 353.641 274.944 332.589 298.641L332.622 298.672ZM341.243 112.411C339.192 110.039 337.063 107.726 334.857 105.472C334.426 105.018 333.983 104.585 333.54 104.132L341.376 96.8218L342.704 98.1621C344.917 100.41 347.056 102.712 349.122 105.07C369.768 128.512 383.048 156.82 387.49 186.859L378.084 204.386H377.984C376.845 170.813 363.941 138.509 341.243 112.411V112.411ZM76.3406 59.9118C114.29 30.0377 162.368 13.6477 212.051 13.6477C261.734 13.6477 309.812 30.0377 347.761 59.9118L347.617 60.0459V75.5109L340.866 81.8001C340.391 81.3876 339.915 80.9649 339.428 80.5628C337.03 78.5008 334.57 76.5007 332.046 74.5624C320.701 65.7814 308.284 58.2787 295.051 52.2102V40.797C291.421 39.2505 287.724 37.7865 283.984 36.4359V47.5398C237.908 29.8481 186.193 29.8481 140.118 47.5398V36.4359C136.377 37.7865 132.681 39.2505 129.051 40.797V52.2102C115.818 58.2787 103.4 65.7814 92.0553 74.5624C89.5468 76.5007 87.0864 78.5008 84.6738 80.5628C84.1869 80.9649 83.711 81.3876 83.2352 81.8001L76.4845 75.5109L75.3779 74.4799L76.4845 73.5314V60.0459L76.3406 59.9118ZM81.4313 98.1621L82.7593 96.8218L90.5945 104.132C90.1518 104.585 89.7091 105.018 89.2775 105.472C87.0642 107.72 84.9357 110.032 82.8921 112.411C60.1937 138.509 47.2895 170.813 46.1509 204.386H46.0513L36.6446 186.859C41.087 156.82 54.3665 128.512 75.0126 105.07C77.0784 102.719 79.218 100.417 81.4313 98.1621V98.1621ZM59.298 90.4296C61.3933 88.0995 63.5513 85.8175 65.772 83.5837C66.2147 83.1404 66.6573 82.6867 67.1111 82.2434L74.9352 89.5326C74.4815 89.9759 74.0388 90.4193 73.6072 90.8729C71.3939 93.1205 69.2432 95.4162 67.1553 97.76C40.3615 127.798 25.1635 165.345 23.9955 204.386H23.9069L14.3564 186.591C19.0504 151.175 34.6605 117.785 59.298 90.4605V90.4296ZM67.1111 336.84L65.772 335.51C63.5587 333.283 61.4007 330.997 59.298 328.653C34.659 301.323 19.0523 267.925 14.3675 232.502L23.918 214.697H24.0065C25.1729 253.741 40.371 291.292 67.1664 321.333C69.2469 323.684 71.3975 325.976 73.6183 328.21C74.0498 328.664 74.4925 329.107 74.9463 329.55L67.1111 336.84ZM36.6446 232.224L46.0513 214.697H46.1509C47.2854 248.271 60.1901 280.576 82.8921 306.672C84.9431 309.051 87.0716 311.367 89.2775 313.621C89.7091 314.075 90.1518 314.508 90.5945 314.972L82.7593 322.261L81.4313 320.921C79.218 318.673 77.0784 316.371 75.0126 314.013C54.365 290.572 41.0853 262.264 36.6446 232.224V232.224ZM347.761 359.182C309.812 389.056 261.734 405.446 212.051 405.446C162.368 405.446 114.29 389.056 76.3406 359.182L76.4845 359.037V345.531L75.3779 344.572L76.4845 343.541L83.2352 337.252C83.711 337.675 84.1869 338.087 84.6738 338.489C87.0716 340.551 89.5321 342.555 92.0553 344.5C103.4 353.278 115.818 360.777 129.051 366.842V378.255C132.681 379.808 136.37 381.262 140.118 382.616V371.554C186.196 389.232 237.906 389.232 283.984 371.554V382.647C287.724 381.273 291.413 379.819 295.051 378.286V366.873C308.283 360.808 320.701 353.309 332.046 344.531C334.555 342.593 337.015 340.589 339.428 338.52C339.915 338.118 340.391 337.706 340.866 337.283L347.617 343.572L348.724 344.603L347.617 345.562V359.068L347.761 359.182ZM342.67 320.921L341.342 322.261L333.496 314.972C333.939 314.508 334.381 314.075 334.813 313.621C337.026 311.374 339.155 309.058 341.198 306.672C363.9 280.576 376.805 248.271 377.94 214.697H378.039L387.446 232.224C383.005 262.264 369.726 290.572 349.078 314.013C347.019 316.378 344.884 318.68 342.67 320.921V320.921ZM364.804 328.653C362.823 330.87 360.775 333.035 358.684 335.159V335.84L358.33 335.51L356.991 336.871L349.166 329.581C349.62 329.138 350.063 328.695 350.494 328.241C352.708 326.007 354.858 323.715 356.946 321.364C383.742 291.323 398.94 253.772 400.106 214.727H400.195L409.745 232.533C405.045 267.935 389.435 301.311 364.804 328.623V328.653ZM400.217 204.386H400.128C398.96 165.345 383.762 127.798 356.968 97.76C354.888 95.4093 352.737 93.1136 350.517 90.8729C350.085 90.4193 349.642 89.9759 349.189 89.5326L356.991 82.2125C357.444 82.6558 357.887 83.1094 358.33 83.5528C360.543 85.7797 362.701 88.0617 364.804 90.3986C389.443 117.733 405.05 151.134 409.734 186.56L400.217 204.386Z" stroke="url(#paint0_linear_75_360)" stroke-width="5" stroke-miterlimit="10"/>
</g>
<defs>
<linearGradient id="paint0_linear_75_360" x1="212.078" y1="3.34668" x2="212.078" y2="415.736" gradientUnits="userSpaceOnUse">
<stop stop-color="#F7941D"/>
<stop offset="1" stop-color="#F7941D" stop-opacity="0"/>
</linearGradient>
</defs>
</svg>
