<svg width="140" height="141" viewBox="0 0 140 141" fill="none" xmlns="http://www.w3.org/2000/svg">
<path d="M68.3372 95.5925C70.2853 95.7156 72.2446 95.6176 74.1771 95.2985L77.2628 96.2027C77.2003 96.2199 77.1376 96.2369 77.0749 96.2537L77.0707 96.2548C76.489 96.4132 75.9315 96.5532 75.3612 96.6567L72.1819 97.2336L75.1313 98.5534C76.3446 99.0963 77.604 99.6048 78.9164 100.087C81.5708 101.068 84.2981 101.84 87.0734 102.397L87.0754 102.397C90.5115 103.079 94.0118 103.389 97.5158 103.322L99.8655 103.277L98.2037 101.615L88.0984 91.5099L87.4739 90.8853L86.777 91.428C84.7622 92.9968 82.5373 94.2747 80.1679 95.2243C79.3358 95.5577 78.488 95.8498 77.6275 96.0995L76.3688 94.8408C80.5377 93.7805 84.3814 91.6897 87.5426 88.7554L102.765 103.973C102.011 104.081 101.203 104.179 100.346 104.26C95.831 104.681 91.2809 104.448 86.8362 103.568C85.9927 103.401 85.1604 103.213 84.339 103.004C79.4361 101.747 74.725 99.8389 70.3307 97.3318L69.7093 96.9645L68.3372 95.5925Z" stroke="url(#paint0_linear_69_194)" stroke-width="2" stroke-miterlimit="10"/>
<path d="M80.7406 80.5381C82.5686 78.709 83.901 76.4449 84.6116 73.9597C85.3224 71.4737 85.3876 68.8487 84.8007 66.3331C84.2139 63.8174 82.9943 61.4944 81.2574 59.5841C79.5208 57.674 77.3245 56.2399 74.8766 55.4173C74.112 55.1584 73.3274 54.9625 72.5306 54.8314C70.1234 54.4352 67.6552 54.6251 65.3348 55.3848C63.0144 56.1445 60.91 57.4516 59.1998 59.1955C57.4896 60.9394 56.2238 63.0688 55.5095 65.4035C54.7953 67.7382 54.6537 70.2096 55.0969 72.6083C55.5402 75.0072 56.5553 77.2627 58.0564 79.1838C59.5575 81.105 61.5002 82.635 63.7201 83.6443C65.9399 84.6537 68.3713 85.1126 70.8084 84.9824C73.2454 84.8522 75.6163 84.1368 77.7204 82.897L77.7251 82.8942C78.8248 82.2382 79.8379 81.4466 80.7406 80.5381ZM80.7406 80.5381C80.7401 80.5386 80.7395 80.5391 80.739 80.5396L80.0318 79.8327L80.7413 80.5374C80.741 80.5376 80.7408 80.5379 80.7406 80.5381ZM81.7877 53.2745L81.7913 53.277C82.7138 53.9299 83.5788 54.6605 84.3766 55.4608L84.3783 55.4625C85.8315 56.9134 87.0551 58.5774 88.0071 60.3975C90.0026 64.2223 90.7237 68.5875 90.0648 72.8576C89.4058 77.128 87.4011 81.0801 84.3424 84.1379L84.3412 84.1391C83.5411 84.9416 82.6742 85.6745 81.7497 86.3298L81.7468 86.3319C79.2707 88.1004 76.4279 89.2867 73.4315 89.8019L73.4311 89.8019C72.6678 89.9335 71.8979 90.0223 71.125 90.0678C68.9148 90.1926 66.7001 89.9562 64.5679 89.3679L64.5674 89.3678C63.1053 88.9652 61.694 88.3979 60.3607 87.6768L60.3602 87.6766C56.9767 85.849 54.1849 83.0959 52.3101 79.7385C50.4354 76.3812 49.5548 72.5576 49.7714 68.7134C50.0204 64.3455 51.6748 60.1714 54.4882 56.8141C57.3015 53.4569 61.1228 51.0968 65.3815 50.0858L65.3823 50.0857C67.1387 49.6674 68.9421 49.484 70.7452 49.5402L72.3944 49.9513L72.3952 49.9515L78.9889 51.6006C79.9657 52.0819 80.9017 52.6417 81.7877 53.2745Z" stroke="url(#paint1_linear_69_194)" stroke-width="2" stroke-miterlimit="10"/>
<path d="M87.5412 48.7018L86.8449 48.1638C85.9716 47.4891 85.0562 46.8708 84.1041 46.3127L87.5412 48.7018ZM87.5412 48.7018L88.1634 48.0796M87.5412 48.7018L88.1634 48.0796M88.1634 48.0796L98.6491 37.5941L100.342 35.9014L97.948 35.887C94.6233 35.8671 91.3046 36.1868 88.0433 36.8409L88.0375 36.8421C83.5801 37.7637 79.2471 39.2126 75.1299 41.1581L72.3677 42.4633L75.3671 43.044C76.7728 43.3161 78.1558 43.6935 79.5044 44.1731L79.505 44.1733M88.1634 48.0796L79.505 44.1733M79.505 44.1733C81.1022 44.74 82.6419 45.4562 84.1038 46.3125L79.505 44.1733ZM100.708 35.0116L100.71 35.0118C101.564 35.0995 102.364 35.2053 103.105 35.3199L87.5681 50.8566C85.3973 48.843 82.8954 47.2146 80.1695 46.0439L80.1662 46.0425C77.9921 45.1178 75.7001 44.498 73.3552 44.2004C72.2852 44.0623 71.2072 43.9929 70.128 43.9929C68.9184 43.9892 67.7113 44.0709 66.5157 44.2367C67.2883 43.6641 68.2187 43.0432 69.2848 42.4015C74.6341 39.2171 80.4729 36.9418 86.5629 35.6684C91.2198 34.7394 95.9885 34.5179 100.708 35.0116Z" stroke="url(#paint2_linear_69_194)" stroke-width="2" stroke-miterlimit="10"/>
<path d="M95.592 71.6606C95.7151 69.7125 95.6171 67.7534 95.298 65.8208L96.2022 62.7352C96.2194 62.7977 96.2364 62.8604 96.2532 62.9231L96.2543 62.9273C96.4127 63.509 96.5527 64.0665 96.6562 64.6368L97.2332 67.816L98.5529 64.8667C99.0959 63.6534 99.6044 62.394 100.086 61.0816C101.067 58.4272 101.839 55.7 102.396 52.9247L102.397 52.9227C103.079 49.4867 103.389 45.9865 103.322 42.4825L103.276 40.1328L101.615 41.7946L91.5094 51.8997L90.8848 52.5243L91.4274 53.2212C92.9963 55.236 94.2742 57.4608 95.2238 59.8301C95.5572 60.6622 95.8493 61.51 96.0991 62.3705L94.8403 63.6292C93.78 59.4604 91.6891 55.6167 88.7548 52.4556L103.973 37.2335C104.081 37.9872 104.178 38.795 104.26 39.6527C104.681 44.1673 104.448 48.7173 103.568 53.162C103.4 54.0054 103.212 54.8378 103.004 55.6591C101.746 60.5619 99.8385 65.273 97.3314 69.6672L96.9641 70.2886L95.592 71.6606Z" stroke="url(#paint3_linear_69_194)" stroke-width="2" stroke-miterlimit="10"/>
<path d="M80.5378 59.2584C78.7087 57.4304 76.4445 56.098 73.9592 55.3874C71.4732 54.6766 68.8482 54.6114 66.3325 55.1983C63.8168 55.7851 61.4938 57.0047 59.5834 58.7415C57.6733 60.4782 56.2392 62.6743 55.4165 65.1222C55.1576 65.8868 54.9617 66.6715 54.8307 67.4682C54.4344 69.8753 54.6243 72.3436 55.384 74.6639C56.1438 76.9843 57.4509 79.0886 59.1948 80.7988C60.9388 82.509 63.0682 83.7748 65.4029 84.489C67.7376 85.2033 70.209 85.3449 72.6079 84.9016C75.0067 84.4583 77.2623 83.4433 79.1834 81.9422C81.1046 80.4411 82.6347 78.4984 83.644 76.2786C84.6534 74.0588 85.1123 71.6274 84.9821 69.1904C84.852 66.7534 84.1365 64.3826 82.8967 62.2785L82.8939 62.2738C82.2379 61.1741 81.4463 60.161 80.5378 59.2584ZM80.5378 59.2584C80.5383 59.2589 80.5388 59.2594 80.5393 59.2599L79.8323 59.9671L80.5371 59.2577C80.5373 59.2579 80.5375 59.2581 80.5378 59.2584ZM53.2737 58.2113L53.2763 58.2077C53.9291 57.2851 54.6597 56.4202 55.4601 55.6224L55.4618 55.6207C56.9127 54.1675 58.5767 52.9439 60.3968 51.9919C64.2217 49.9965 68.587 49.2754 72.8572 49.9343C77.1276 50.5933 81.0797 52.598 84.1376 55.6566L84.1388 55.6578C84.9414 56.4579 85.6743 57.3248 86.3295 58.2492L86.3316 58.2522C88.1002 60.7282 89.2865 63.571 89.8017 66.5673L89.8017 66.5677C89.9333 67.331 90.0221 68.1009 90.0676 68.8738C90.1924 71.084 89.956 73.2987 89.3677 75.4308L89.3675 75.4313C88.965 76.8934 88.3977 78.3046 87.6766 79.638L87.6764 79.6384C85.8487 83.0218 83.0956 85.8137 79.7381 87.6884C76.3808 89.5631 72.5571 90.4436 68.7129 90.2271C64.3449 89.9781 60.1707 88.3237 56.8134 85.5104C53.4561 82.697 51.096 78.8758 50.085 74.6172L50.0849 74.6164C49.6665 72.8601 49.4832 71.0567 49.5394 69.2536L49.9505 67.6044L49.9507 67.6036L51.5998 61.01C52.0811 60.0332 52.6409 59.0973 53.2737 58.2113Z" stroke="url(#paint4_linear_69_194)" stroke-width="2" stroke-miterlimit="10"/>
<path d="M48.7013 52.4578L48.1633 53.1541C47.4886 54.0273 46.8703 54.9428 46.3121 55.8949L48.7013 52.4578ZM48.7013 52.4578L48.0791 51.8356M48.7013 52.4578L48.0791 51.8356M48.0791 51.8356L37.5934 41.3501L35.9006 39.6573L35.8863 42.0512C35.8664 45.3758 36.1861 48.6945 36.8402 51.9557L36.8414 51.9615C37.763 56.4188 39.2119 60.7518 41.1574 64.8689L42.4627 67.6311L43.0434 64.6317C43.3155 63.226 43.6929 61.843 44.1725 60.4945L44.1727 60.4938M48.0791 51.8356L44.1727 60.4938M44.1727 60.4938C44.7394 58.8967 45.4557 57.357 46.3119 55.8952L44.1727 60.4938ZM35.0109 39.2913L35.0111 39.2893C35.0987 38.4352 35.2046 37.6354 35.3192 36.8943L50.8561 52.4309C48.8425 54.6017 47.214 57.1036 46.0433 59.8294L46.042 59.8326C45.1173 62.0067 44.4974 64.2987 44.1998 66.6436C44.0617 67.7136 43.9923 68.7915 43.9923 69.8707C43.9886 71.0803 44.0703 72.2874 44.2361 73.4829C43.6635 72.7104 43.0426 71.78 42.4009 70.7139C39.2164 65.3647 36.9411 59.526 35.6677 53.4361C34.7386 48.7792 34.5172 44.0106 35.0109 39.2913Z" stroke="url(#paint5_linear_69_194)" stroke-width="2" stroke-miterlimit="10"/>
<path d="M71.6628 95.5925C69.7147 95.7156 67.7554 95.6176 65.8229 95.2985L62.7372 96.2027C62.7997 96.2199 62.8624 96.2369 62.9251 96.2537L62.9293 96.2548C63.511 96.4132 64.0685 96.5532 64.6388 96.6567L67.8181 97.2336L64.8687 98.5534C63.6554 99.0963 62.396 99.6048 61.0836 100.087C58.4292 101.068 55.7019 101.84 52.9266 102.397L52.9246 102.397C49.4885 103.079 45.9882 103.389 42.4842 103.322L40.1345 103.277L41.7963 101.615L51.9016 91.5099L52.5261 90.8853L53.223 91.428C55.2378 92.9968 57.4627 94.2747 59.8321 95.2243C60.6642 95.5577 61.512 95.8498 62.3725 96.0995L63.6312 94.8408C59.4623 93.7805 55.6186 91.6897 52.4574 88.7554L37.2351 103.973C37.9888 104.081 38.7967 104.179 39.6544 104.26C44.169 104.681 48.7191 104.448 53.1638 103.568C54.0073 103.401 54.8396 103.213 55.661 103.004C60.5639 101.747 65.275 99.8389 69.6693 97.3318L70.2907 96.9645L71.6628 95.5925Z" stroke="url(#paint6_linear_69_194)" stroke-width="2" stroke-miterlimit="10"/>
<path d="M59.2594 80.5381C57.4314 78.709 56.099 76.4449 55.3884 73.9597C54.6776 71.4737 54.6124 68.8487 55.1993 66.3331C55.7861 63.8174 57.0057 61.4944 58.7426 59.5841C60.4792 57.674 62.6755 56.2399 65.1234 55.4173C65.888 55.1584 66.6726 54.9625 67.4694 54.8314C69.8766 54.4352 72.3448 54.6251 74.6652 55.3848C76.9856 56.1445 79.09 57.4516 80.8002 59.1955C82.5104 60.9394 83.7762 63.0688 84.4905 65.4035C85.2047 67.7382 85.3463 70.2096 84.9031 72.6083C84.4598 75.0072 83.4447 77.2627 81.9436 79.1838C80.4425 81.105 78.4998 82.635 76.2799 83.6443C74.0601 84.6537 71.6287 85.1126 69.1916 84.9824C66.7546 84.8522 64.3837 84.1368 62.2796 82.897L62.2749 82.8942C61.1752 82.2382 60.1621 81.4466 59.2594 80.5381ZM59.2594 80.5381C59.2599 80.5386 59.2605 80.5391 59.261 80.5396L59.9682 79.8327L59.2587 80.5374C59.259 80.5376 59.2592 80.5379 59.2594 80.5381ZM58.2123 53.2745L58.2087 53.277C57.2862 53.9299 56.4212 54.6605 55.6234 55.4608L55.6217 55.4625C54.1685 56.9134 52.9449 58.5774 51.9929 60.3975C49.9974 64.2223 49.2763 68.5875 49.9352 72.8576C50.5942 77.128 52.5989 81.0801 55.6576 84.1379L55.6588 84.1391C56.4589 84.9416 57.3258 85.6745 58.2503 86.3298L58.2532 86.3319C60.7293 88.1004 63.5721 89.2867 66.5685 89.8019L66.5689 89.8019C67.3322 89.9335 68.1021 90.0223 68.875 90.0678C71.0852 90.1926 73.2999 89.9562 75.4321 89.3679L75.4326 89.3678C76.8947 88.9652 78.306 88.3979 79.6393 87.6768L79.6398 87.6766C83.0233 85.849 85.8151 83.0959 87.6899 79.7385C89.5646 76.3812 90.4452 72.5576 90.2286 68.7134C89.9796 64.3455 88.3252 60.1714 85.5118 56.8141C82.6985 53.4569 78.8772 51.0968 74.6185 50.0858L74.6177 50.0857C72.8613 49.6674 71.0579 49.484 69.2548 49.5402L67.6056 49.9513L67.6048 49.9515L61.0111 51.6006C60.0343 52.0819 59.0983 52.6417 58.2123 53.2745Z" stroke="url(#paint7_linear_69_194)" stroke-width="2" stroke-miterlimit="10"/>
<path d="M52.4588 48.7018L53.1551 48.1638C54.0284 47.4891 54.9438 46.8708 55.8959 46.3127L52.4588 48.7018ZM52.4588 48.7018L51.8366 48.0796M52.4588 48.7018L51.8366 48.0796M51.8366 48.0796L41.3509 37.5941L39.6581 35.9014L42.052 35.887C45.3767 35.8671 48.6954 36.1868 51.9567 36.8409L51.9625 36.8421C56.4199 37.7637 60.7529 39.2126 64.8701 41.1581L67.6323 42.4633L64.6329 43.044C63.2272 43.3161 61.8442 43.6935 60.4956 44.1731L60.495 44.1733M51.8366 48.0796L60.495 44.1733M60.495 44.1733C58.8978 44.74 57.3581 45.4562 55.8962 46.3125L60.495 44.1733ZM39.2921 35.0116L39.2901 35.0118C38.436 35.0995 37.6361 35.2053 36.8951 35.3199L52.4319 50.8566C54.6027 48.843 57.1046 47.2146 59.8305 46.0439L59.8338 46.0425C62.0079 45.1178 64.2999 44.498 66.6448 44.2004C67.7148 44.0623 68.7928 43.9929 69.872 43.9929C71.0816 43.9892 72.2887 44.0709 73.4843 44.2367C72.7117 43.6641 71.7813 43.0432 70.7152 42.4015C65.3659 39.2171 59.5271 36.9418 53.4371 35.6684C48.7802 34.7394 44.0115 34.5179 39.2921 35.0116Z" stroke="url(#paint8_linear_69_194)" stroke-width="2" stroke-miterlimit="10"/>
<path d="M95.592 68.3413C95.7151 70.2894 95.6172 72.2486 95.298 74.1811L96.2022 77.2668C96.2194 77.2042 96.2364 77.1416 96.2532 77.0789L96.2543 77.0747C96.4127 76.4929 96.5527 75.9354 96.6562 75.3652L97.2332 72.1859L98.5529 75.1353C99.0959 76.3485 99.6044 77.6079 100.086 78.9203C101.067 81.5747 101.839 84.3019 102.396 87.0772L102.397 87.0792C103.079 90.5152 103.389 94.0154 103.322 97.5195L103.276 99.8691L101.615 98.2073L91.5094 88.1022L90.8848 87.4777L91.4274 86.7808C92.9963 84.766 94.2742 82.5412 95.2238 80.1718C95.5572 79.3397 95.8493 78.4919 96.0991 77.6315L94.8403 76.3728C93.78 80.5416 91.6891 84.3852 88.7548 87.5464L103.973 102.768C104.081 102.015 104.178 101.207 104.26 100.349C104.681 95.8347 104.448 91.2846 103.568 86.84C103.4 85.9966 103.212 85.1642 103.004 84.3428C101.746 79.44 99.8385 74.729 97.3314 70.3347L96.9641 69.7134L95.592 68.3413Z" stroke="url(#paint9_linear_69_194)" stroke-width="2" stroke-miterlimit="10"/>
<path d="M80.5378 80.7436C78.7087 82.5716 76.4445 83.9039 73.9592 84.6146C71.4732 85.3254 68.8482 85.3906 66.3325 84.8037C63.8168 84.2168 61.4938 82.9973 59.5834 81.2604C57.6733 79.5238 56.2392 77.3276 55.4165 74.8797C55.1576 74.1151 54.9617 73.3305 54.8307 72.5337C54.4344 70.1266 54.6243 67.6584 55.384 65.338C56.1438 63.0177 57.4509 60.9133 59.1949 59.2032C60.9388 57.493 63.0682 56.2271 65.4029 55.5129C67.7376 54.7987 70.2091 54.6571 72.6079 55.1004C75.0067 55.5436 77.2623 56.5587 79.1834 58.0597C81.1046 59.5608 82.6347 61.5035 83.644 63.7234C84.6534 65.9432 85.1123 68.3745 84.9821 70.8115C84.852 73.2485 84.1365 75.6194 82.8967 77.7235L82.8939 77.7281C82.2379 78.8278 81.4463 79.841 80.5378 80.7436ZM80.5378 80.7436C80.5383 80.7431 80.5388 80.7426 80.5393 80.742L79.8323 80.0348L80.5371 80.7443C80.5373 80.744 80.5375 80.7438 80.5378 80.7436ZM53.2737 81.7907L53.2763 81.7943C53.9291 82.7168 54.6597 83.5817 55.4601 84.3796L55.4618 84.3813C56.9127 85.8345 58.5767 87.058 60.3968 88.01C64.2217 90.0055 68.587 90.7265 72.8571 90.0676C77.1276 89.4087 81.0797 87.404 84.1376 84.3453L84.1388 84.3441C84.9414 83.5441 85.6743 82.6772 86.3295 81.7527L86.3316 81.7498C88.1002 79.2737 89.2865 76.431 89.8017 73.4347L89.8017 73.4342C89.9333 72.671 90.0221 71.9011 90.0676 71.1281C90.1924 68.918 89.956 66.7033 89.3677 64.5712L89.3675 64.5707C88.965 63.1086 88.3977 61.6973 87.6766 60.364L87.6764 60.3636C85.8487 56.9801 83.0956 54.1883 79.7381 52.3135C76.3808 50.4389 72.5571 49.5583 68.7129 49.7749C64.3449 50.0238 60.1707 51.6782 56.8134 54.4916C53.4561 57.3049 51.096 61.1261 50.085 65.3848L50.0849 65.3855C49.6665 67.1419 49.4832 68.9452 49.5394 70.7483L49.9505 72.3975L49.9507 72.3983L51.5998 78.992C52.0811 79.9687 52.6409 80.9047 53.2737 81.7907Z" stroke="url(#paint10_linear_69_194)" stroke-width="2" stroke-miterlimit="10"/>
<path d="M48.7013 87.5442L48.1633 86.8479C47.4886 85.9746 46.8703 85.0592 46.3121 84.1071L48.7013 87.5442ZM48.7013 87.5442L48.0791 88.1664M48.7013 87.5442L48.0791 88.1664M48.0791 88.1664L37.5934 98.6519L35.9006 100.345L35.8863 97.9508C35.8664 94.6262 36.1861 91.3075 36.8402 88.0463L36.8414 88.0405C37.763 83.5831 39.2119 79.2501 41.1574 75.1331L42.4627 72.3709L43.0434 75.3703C43.3155 76.776 43.6929 78.1589 44.1725 79.5075L44.1727 79.5081M48.0791 88.1664L44.1727 79.5081M44.1727 79.5081C44.7394 81.1052 45.4557 82.6449 46.3119 84.1068L44.1727 79.5081ZM35.0109 100.711L35.0111 100.713C35.0987 101.567 35.2046 102.367 35.3192 103.108L50.8561 87.571C48.8425 85.4003 47.214 82.8984 46.0434 80.1725L46.042 80.1693C45.1173 77.9952 44.4974 75.7033 44.1998 73.3584C44.0617 72.2884 43.9923 71.2104 43.9923 70.1312C43.9886 68.9216 44.0703 67.7146 44.2361 66.519C43.6636 67.2916 43.0426 68.222 42.4009 69.2881C39.2164 74.6373 36.9411 80.476 35.6677 86.5659C34.7386 91.2227 34.5172 95.9913 35.0109 100.711Z" stroke="url(#paint11_linear_69_194)" stroke-width="2" stroke-miterlimit="10"/>
<path d="M58.0195 56.6807H60.1289C60.1419 56.6807 60.1484 56.6872 60.1484 56.7002V64.8252C60.1484 64.8252 62.681 65.971 67.7461 68.2627L69.7578 69.1807C75.5911 66.5374 78.5859 65.1833 78.7422 65.1182L79.3672 64.8252V56.7002C79.3672 56.6872 79.3737 56.6807 79.3867 56.6807H81.4961C81.5091 56.6807 81.5156 56.6872 81.5156 56.7002V66.1924C81.4635 66.2314 80.3958 66.7197 78.3125 67.6572L70.3242 71.2705C69.9857 71.4268 69.7969 71.5114 69.7578 71.5244C64.0417 68.9333 61.138 67.6182 61.0469 67.5791L58 66.2119V56.7002C58 56.6872 58.0065 56.6807 58.0195 56.6807ZM58.0195 68.9463C63.7487 71.29 66.6393 72.4749 66.6914 72.501C66.7565 72.527 67.7786 72.9437 69.7578 73.751C75.6693 71.3291 78.7487 70.0726 78.9961 69.9814C79.0091 69.9684 79.849 69.6234 81.5156 68.9463V68.9658V84.9814C81.5156 84.9945 81.5091 85.001 81.4961 85.001H79.3867C79.3737 85.001 79.3672 84.9945 79.3672 84.9814V72.1299C73.612 74.4736 70.7279 75.652 70.7148 75.665C70.6107 75.7041 70.2917 75.8343 69.7578 76.0557C64.4062 73.8812 61.6068 72.7354 61.3594 72.6182C61.3464 72.6182 60.9427 72.4554 60.1484 72.1299V84.9814C60.1484 84.9945 60.1419 85.001 60.1289 85.001H58.0195C58.0065 85.001 58 84.9945 58 84.9814V68.9658C58 68.9528 58.0065 68.9463 58.0195 68.9463Z" fill="url(#paint12_linear_69_194)"/>
<defs>
<linearGradient id="paint0_linear_69_194" x1="92.4361" y1="92.2299" x2="73.5086" y2="111.98" gradientUnits="userSpaceOnUse">
<stop offset="0.411458" stop-color="#34C4A1"/>
<stop offset="1" stop-color="#37B697" stop-opacity="0"/>
</linearGradient>
<linearGradient id="paint1_linear_69_194" x1="85.083" y1="54.7529" x2="46.241" y2="96.5512" gradientUnits="userSpaceOnUse">
<stop offset="0.411458" stop-color="#34C4A1"/>
<stop offset="1" stop-color="#37B697" stop-opacity="0"/>
</linearGradient>
<linearGradient id="paint2_linear_69_194" x1="97.4779" y1="26.9719" x2="64.2551" y2="64.6726" gradientUnits="userSpaceOnUse">
<stop offset="0.411458" stop-color="#34C4A1"/>
<stop offset="1" stop-color="#37B697" stop-opacity="0"/>
</linearGradient>
<linearGradient id="paint3_linear_69_194" x1="92.2293" y1="47.5621" x2="111.979" y2="66.49" gradientUnits="userSpaceOnUse">
<stop offset="0.411458" stop-color="#34C4A1"/>
<stop offset="1" stop-color="#37B697" stop-opacity="0"/>
</linearGradient>
<linearGradient id="paint4_linear_69_194" x1="54.7522" y1="54.916" x2="96.5499" y2="93.7587" gradientUnits="userSpaceOnUse">
<stop offset="0.411458" stop-color="#34C4A1"/>
<stop offset="1" stop-color="#37B697" stop-opacity="0"/>
</linearGradient>
<linearGradient id="paint5_linear_69_194" x1="26.9711" y1="42.5212" x2="64.6713" y2="75.7447" gradientUnits="userSpaceOnUse">
<stop offset="0.411458" stop-color="#34C4A1"/>
<stop offset="1" stop-color="#37B697" stop-opacity="0"/>
</linearGradient>
<linearGradient id="paint6_linear_69_194" x1="47.5639" y1="92.2299" x2="66.4914" y2="111.98" gradientUnits="userSpaceOnUse">
<stop offset="0.411458" stop-color="#34C4A1"/>
<stop offset="1" stop-color="#37B697" stop-opacity="0"/>
</linearGradient>
<linearGradient id="paint7_linear_69_194" x1="54.917" y1="54.7529" x2="93.759" y2="96.5512" gradientUnits="userSpaceOnUse">
<stop offset="0.411458" stop-color="#34C4A1"/>
<stop offset="1" stop-color="#37B697" stop-opacity="0"/>
</linearGradient>
<linearGradient id="paint8_linear_69_194" x1="42.5221" y1="26.9719" x2="75.7449" y2="64.6726" gradientUnits="userSpaceOnUse">
<stop offset="0.411458" stop-color="#34C4A1"/>
<stop offset="1" stop-color="#37B697" stop-opacity="0"/>
</linearGradient>
<linearGradient id="paint9_linear_69_194" x1="92.2293" y1="92.4398" x2="111.979" y2="73.512" gradientUnits="userSpaceOnUse">
<stop offset="0.411458" stop-color="#34C4A1"/>
<stop offset="1" stop-color="#37B697" stop-opacity="0"/>
</linearGradient>
<linearGradient id="paint10_linear_69_194" x1="54.7522" y1="85.0859" x2="96.5499" y2="46.2433" gradientUnits="userSpaceOnUse">
<stop offset="0.411458" stop-color="#34C4A1"/>
<stop offset="1" stop-color="#37B697" stop-opacity="0"/>
</linearGradient>
<linearGradient id="paint11_linear_69_194" x1="26.9711" y1="97.4807" x2="64.6713" y2="64.2573" gradientUnits="userSpaceOnUse">
<stop offset="0.411458" stop-color="#34C4A1"/>
<stop offset="1" stop-color="#37B697" stop-opacity="0"/>
</linearGradient>
<linearGradient id="paint12_linear_69_194" x1="72.4374" y1="49.001" x2="75.062" y2="101.635" gradientUnits="userSpaceOnUse">
<stop offset="0.411458" stop-color="#34C4A1"/>
<stop offset="1" stop-color="#37B697" stop-opacity="0"/>
</linearGradient>
</defs>
</svg>
