<svg width="103" height="103" viewBox="0 0 103 103" fill="none" xmlns="http://www.w3.org/2000/svg">
<mask id="path-1-inside-1_221_13" fill="white">
<path d="M55.6931 97.1532L81.17 97.1532C82.1739 96.4885 83.1597 95.7966 84.1138 95.0505C85.181 94.2395 86.2135 93.3879 87.2114 92.4955C87.4104 92.3237 87.6093 92.1428 87.8038 91.9574C88.3962 91.4238 88.975 90.8676 89.5402 90.3024C90.1055 89.7371 90.6617 89.1583 91.1953 88.5659C91.3807 88.3715 91.5616 88.1725 91.7334 87.9735C92.3514 87.2832 92.9543 86.5747 93.5422 85.8482C93.8045 85.5271 94.0577 85.2061 94.3019 84.876C95.1852 83.7274 96.0188 82.5441 96.8026 81.3262C99.0913 77.7884 100.957 73.9941 102.36 70.0212L79.4336 70.0212L74.7578 65.3455C77.0825 61.2576 78.3047 56.6358 78.3047 51.9332C78.3047 47.2306 77.0825 42.6088 74.7578 38.5209L79.4336 33.8452L102.347 33.8452C100.943 29.8723 99.0777 26.078 96.789 22.5402C96.0052 21.3343 95.1716 20.1511 94.2883 18.9904C94.0441 18.6603 93.7909 18.3393 93.5286 18.0182C92.9498 17.2947 92.3469 16.5862 91.7198 15.8929C91.548 15.6939 91.3671 15.4949 91.1817 15.3005C90.6617 14.7081 90.1055 14.1383 89.5538 13.564C89.0021 12.9897 88.4097 12.4426 87.8174 11.909C87.6229 11.7236 87.4239 11.5427 87.225 11.3709C86.2241 10.4665 85.1916 9.61482 84.1274 8.81593C83.1733 8.07884 82.1875 7.37793 81.1836 6.7132L55.7066 6.7132L51.1846 4L46.6626 6.7132L21.1857 6.7132C20.1818 7.37793 19.196 8.0698 18.2419 8.81593C17.1747 9.62386 16.1421 10.4755 15.1443 11.3709C14.9453 11.5427 14.7463 11.7236 14.5519 11.909C13.9595 12.4426 13.3807 12.9988 12.8155 13.564C12.2502 14.1293 11.694 14.7081 11.1604 15.3005C10.975 15.4949 10.7941 15.6939 10.6223 15.8929C10.0043 16.5862 9.40134 17.2947 8.81348 18.0182C8.55121 18.3393 8.29798 18.6603 8.05379 18.9904C7.17049 20.139 6.33694 21.3223 5.55312 22.5402C3.26404 26.0771 1.40015 29.8716 0.00010811 33.8452L22.9086 33.8452L27.6024 38.5209C25.2778 42.6088 24.0555 47.2306 24.0555 51.9332C24.0555 56.6358 25.2777 61.2576 27.6024 65.3454L22.9266 70.0212L0.0181915 70.0212C1.41824 73.9948 3.28212 77.7893 5.57121 81.3262C6.35201 82.5321 7.18556 83.7153 8.07187 84.876C8.31606 85.2061 8.5693 85.5271 8.83157 85.8482C9.41039 86.5717 10.0133 87.2802 10.6404 87.9735C10.8122 88.1725 10.9931 88.3715 11.1785 88.5659C11.7121 89.1583 12.2683 89.7371 12.8335 90.3024C13.3988 90.8676 13.9776 91.4238 14.57 91.9574C14.7644 92.1428 14.9634 92.3237 15.1624 92.4955C16.1632 93.3999 17.1958 94.2516 18.2599 95.0505C19.2141 95.7875 20.1999 96.4885 21.2038 97.1532L46.6491 97.1532L51.1711 99.8664L55.6931 97.1532ZM68.7526 37.7341C68.9244 37.9421 69.0872 38.1547 69.2455 38.3717C72.192 42.2807 73.7857 47.0427 73.7857 51.9377C73.7857 56.8328 72.192 61.5948 69.2455 65.5037C69.0872 65.7208 68.9244 65.9559 68.7526 66.1413C67.7459 67.3892 66.609 68.5261 65.3611 69.5328C65.1531 69.7047 64.9406 69.8674 64.7235 70.0257C61.4319 72.507 57.5206 74.0339 53.4185 74.4392C51.9149 74.5899 50.4001 74.5899 48.8965 74.4392C46.1773 74.1676 43.5307 73.4013 41.087 72.1782L48.1142 65.151C48.3721 65.2157 48.6332 65.267 48.8965 65.3047C50.3927 65.5641 51.9223 65.5641 53.4185 65.3047C53.6817 65.267 53.9429 65.2157 54.2008 65.151C55.6198 64.8284 56.9762 64.2754 58.2163 63.514C58.4515 63.3739 58.6685 63.2292 58.8992 63.0618C60.2253 62.1456 61.3744 60.9965 62.2907 59.6703C62.4535 59.4488 62.5982 59.2181 62.7429 58.9875C64.0386 56.861 64.724 54.4189 64.724 51.9287C64.724 49.4385 64.0386 46.9964 62.7429 44.8698C62.6027 44.6347 62.458 44.4176 62.2907 44.187C61.3744 42.8608 60.2253 41.7117 58.8992 40.7955C58.6776 40.6327 58.447 40.488 58.2163 40.3433C56.9763 39.5819 55.6198 39.029 54.2008 38.7063C53.9429 38.6416 53.6817 38.5903 53.4185 38.5526C51.9223 38.2933 50.3927 38.2933 48.8965 38.5526C48.6332 38.5903 48.3721 38.6416 48.1142 38.7063L41.1006 31.6882C43.5443 30.4651 46.1909 29.6988 48.9101 29.4272C50.4136 29.2765 51.9285 29.2765 53.4321 29.4272C57.5342 29.8325 61.4454 31.3594 64.7371 33.8407C64.9541 33.9989 65.1893 34.1617 65.3747 34.3336C66.6225 35.3403 67.7595 36.4772 68.7662 37.7251L68.7526 37.7341ZM43.3028 56.4009C43.1621 56.1589 43.0338 55.9098 42.9184 55.6548C42.3903 54.4852 42.1172 53.2165 42.1172 51.9332C42.1172 50.6499 42.3903 49.3812 42.9184 48.2116C43.0338 47.9565 43.1621 47.7075 43.3028 47.4655C44.1049 46.0484 45.2772 44.8761 46.6943 44.074C46.9363 43.9333 47.1854 43.805 47.4404 43.6896C48.6097 43.1601 49.8785 42.8862 51.162 42.8862C52.4456 42.8862 53.7144 43.1601 54.8836 43.6896C55.1417 43.8047 55.3938 43.933 55.6388 44.074C57.0559 44.8761 58.2282 46.0484 59.0303 47.4655C59.171 47.7075 59.2992 47.9565 59.4147 48.2116C59.9428 49.3812 60.2159 50.6499 60.2159 51.9332C60.2159 53.2165 59.9428 54.4852 59.4147 55.6548C59.2992 55.9098 59.171 56.1589 59.0303 56.4009C58.2308 57.8246 57.0582 59.0034 55.6388 59.8105C55.3967 59.9512 55.1477 60.0795 54.8927 60.1949C53.7234 60.7244 52.4546 60.9983 51.1711 60.9983C49.8875 60.9983 48.6187 60.7244 47.4495 60.1949C47.1944 60.0795 46.9454 59.9512 46.7033 59.8105C45.2863 59.0084 44.114 57.8361 43.3118 56.419L43.3028 56.4009ZM24.0391 29.3232L6.85546 29.3232C8.13022 26.8343 9.61107 24.4565 11.2825 22.2146C12.0829 21.1429 12.9285 20.0983 13.8148 19.0944C13.9912 18.8909 14.1675 18.6965 14.3484 18.4975C14.885 17.8946 15.4367 17.3158 16.0035 16.7611C16.5702 16.2064 17.149 15.6547 17.7399 15.106C17.9389 14.9251 18.1333 14.7488 18.3368 14.5724C19.3407 13.668 20.3853 12.8405 21.457 12.0401C21.8233 11.7688 22.1941 11.4975 22.5694 11.2352L46.6491 11.2352L51.1711 8.522L55.6931 11.2352L79.7772 11.2352C80.1526 11.4975 80.5234 11.7688 80.8897 12.0401C81.9614 12.8405 83.0059 13.6861 84.0098 14.5724C84.2133 14.7488 84.4078 14.9252 84.6067 15.106C85.2097 15.6426 85.7885 16.1943 86.3432 16.7611C86.8979 17.3278 87.4496 17.9067 87.9982 18.4975C88.1791 18.6965 88.3555 18.8909 88.5318 19.0944C89.4362 20.0983 90.2638 21.1429 91.0642 22.2146C92.7356 24.4565 94.2164 26.8343 95.4912 29.3232L78.3076 29.3232L72.4833 35.143C72.3205 34.935 72.1531 34.7225 71.9768 34.519C71.4658 33.904 70.9232 33.3116 70.3579 32.7464C69.7927 32.1811 69.2048 31.6385 68.5853 31.1275C68.3818 30.9511 68.1693 30.7838 67.9613 30.621C66.8946 29.7823 65.7653 29.0264 64.5833 28.36C61.1634 26.4079 57.3568 25.2301 53.4321 24.9097L53.4321 24.8148C53.4321 24.2151 53.1939 23.64 52.7698 23.216C52.3458 22.792 51.7707 22.5538 51.1711 22.5538C50.5714 22.5538 49.9963 22.792 49.5723 23.216C49.1483 23.64 48.9101 24.2151 48.9101 24.8148L48.9101 24.9097C44.9853 25.2301 41.1787 26.4079 37.7588 28.36C36.5768 29.0264 35.4475 29.7823 34.3809 30.621C34.1729 30.7838 33.9603 30.9511 33.7568 31.1275C33.1418 31.6385 32.5495 32.1811 31.9842 32.7464C31.419 33.3116 30.8763 33.904 30.3653 34.519C30.189 34.7225 30.0217 34.935 29.8589 35.143L24.0391 29.3232ZM33.0831 38.3672C33.2413 38.1501 33.4041 37.915 33.576 37.7296C34.5827 36.4817 35.7196 35.3448 36.9675 34.3381C37.1755 34.1663 37.388 34.0035 37.6051 33.8452L44.1122 40.3659C43.8771 40.5061 43.66 40.6508 43.4294 40.8181C42.1032 41.7344 40.9541 42.8834 40.0379 44.2096C39.8751 44.4312 39.7304 44.6618 39.5857 44.8924L33.0831 38.3672ZM28.5611 51.9332C28.5558 48.4382 29.3656 44.99 30.9261 41.8627L37.9533 48.8899C37.4891 50.8922 37.4891 52.9742 37.9533 54.9765L30.9261 62.0037C29.3656 58.8764 28.5558 55.4282 28.5611 51.9332V51.9332ZM33.5805 66.1323C33.4086 65.9243 33.2459 65.7117 33.0876 65.4947L39.5902 58.992C39.7304 59.2272 39.8751 59.4442 40.0424 59.6749C40.9586 61.001 42.1077 62.1501 43.4339 63.0664C43.6555 63.2292 43.8861 63.3739 44.1167 63.5186L37.6141 70.0212C37.397 69.8629 37.1845 69.7001 36.9765 69.5283C35.7286 68.5216 34.5917 67.3847 33.585 66.1368L33.5805 66.1323ZM46.6491 92.6312L22.5649 92.6312C22.1896 92.3689 21.8188 92.0976 21.4525 91.8263C20.3808 91.0259 19.3362 90.1803 18.3323 89.294C18.1288 89.1176 17.9344 88.9412 17.7354 88.7604C17.1325 88.2238 16.5536 87.6721 15.9989 87.1053C15.4442 86.5386 14.8926 85.9597 14.3439 85.3689C14.163 85.1699 13.9866 84.9754 13.8103 84.772C12.9059 83.7681 12.0784 82.7235 11.278 81.6518C9.60654 79.4099 8.12569 77.0321 6.85093 74.5432L24.0345 74.5432L29.8634 68.7234C30.0262 68.9314 30.1935 69.1439 30.3699 69.3474C30.8808 69.9624 31.4235 70.5548 31.9887 71.12C32.554 71.6853 33.1464 72.2279 33.7614 72.7389C33.9648 72.9153 34.1774 73.0826 34.3854 73.2454C35.452 74.0841 36.5813 74.84 37.7633 75.5064C41.1832 77.4585 44.9898 78.6363 48.9146 78.9567L48.9146 79.0516C48.9146 79.6513 49.1528 80.2264 49.5768 80.6504C50.0008 81.0744 50.5759 81.3126 51.1756 81.3126C51.7752 81.3126 52.3503 81.0744 52.7744 80.6504C53.1984 80.2264 53.4366 79.6513 53.4366 79.0516L53.4366 78.9567C57.3613 78.6363 61.168 77.4585 64.5878 75.5064C65.7699 74.84 66.8991 74.0841 67.9658 73.2454C68.1738 73.0826 68.3863 72.9153 68.5898 72.7389C69.2048 72.2279 69.7972 71.6853 70.3624 71.12C70.9277 70.5548 71.4703 69.9624 71.9813 69.3474C72.1577 69.1439 72.325 68.9314 72.4878 68.7234L78.3076 74.5432L95.4912 74.5432C94.2164 77.0321 92.7356 79.4099 91.0641 81.6518C90.2638 82.7235 89.4181 83.7681 88.5318 84.772C88.3555 84.9755 88.1791 85.1699 87.9982 85.3689C87.4586 85.9718 86.9069 86.5506 86.3432 87.1053C85.7794 87.66 85.2006 88.2087 84.6067 88.7513C84.4078 88.9322 84.2133 89.1086 84.0098 89.2849C83.0059 90.1893 81.9614 91.0168 80.8896 91.8172C80.5234 92.0886 80.1526 92.3599 79.7772 92.6222L55.6931 92.6222L51.1711 95.3354L46.6491 92.6312Z"/>
</mask>
<path d="M55.6931 97.1532L81.17 97.1532C82.1739 96.4885 83.1597 95.7966 84.1138 95.0505C85.181 94.2395 86.2135 93.3879 87.2114 92.4955C87.4104 92.3237 87.6093 92.1428 87.8038 91.9574C88.3962 91.4238 88.975 90.8676 89.5402 90.3024C90.1055 89.7371 90.6617 89.1583 91.1953 88.5659C91.3807 88.3715 91.5616 88.1725 91.7334 87.9735C92.3514 87.2832 92.9543 86.5747 93.5422 85.8482C93.8045 85.5271 94.0577 85.2061 94.3019 84.876C95.1852 83.7274 96.0188 82.5441 96.8026 81.3262C99.0913 77.7884 100.957 73.9941 102.36 70.0212L79.4336 70.0212L74.7578 65.3455C77.0825 61.2576 78.3047 56.6358 78.3047 51.9332C78.3047 47.2306 77.0825 42.6088 74.7578 38.5209L79.4336 33.8452L102.347 33.8452C100.943 29.8723 99.0777 26.078 96.789 22.5402C96.0052 21.3343 95.1716 20.1511 94.2883 18.9904C94.0441 18.6603 93.7909 18.3393 93.5286 18.0182C92.9498 17.2947 92.3469 16.5862 91.7198 15.8929C91.548 15.6939 91.3671 15.4949 91.1817 15.3005C90.6617 14.7081 90.1055 14.1383 89.5538 13.564C89.0021 12.9897 88.4097 12.4426 87.8174 11.909C87.6229 11.7236 87.4239 11.5427 87.225 11.3709C86.2241 10.4665 85.1916 9.61482 84.1274 8.81593C83.1733 8.07884 82.1875 7.37793 81.1836 6.7132L55.7066 6.7132L51.1846 4L46.6626 6.7132L21.1857 6.7132C20.1818 7.37793 19.196 8.0698 18.2419 8.81593C17.1747 9.62386 16.1421 10.4755 15.1443 11.3709C14.9453 11.5427 14.7463 11.7236 14.5519 11.909C13.9595 12.4426 13.3807 12.9988 12.8155 13.564C12.2502 14.1293 11.694 14.7081 11.1604 15.3005C10.975 15.4949 10.7941 15.6939 10.6223 15.8929C10.0043 16.5862 9.40134 17.2947 8.81348 18.0182C8.55121 18.3393 8.29798 18.6603 8.05379 18.9904C7.17049 20.139 6.33694 21.3223 5.55312 22.5402C3.26404 26.0771 1.40015 29.8716 0.00010811 33.8452L22.9086 33.8452L27.6024 38.5209C25.2778 42.6088 24.0555 47.2306 24.0555 51.9332C24.0555 56.6358 25.2777 61.2576 27.6024 65.3454L22.9266 70.0212L0.0181915 70.0212C1.41824 73.9948 3.28212 77.7893 5.57121 81.3262C6.35201 82.5321 7.18556 83.7153 8.07187 84.876C8.31606 85.2061 8.5693 85.5271 8.83157 85.8482C9.41039 86.5717 10.0133 87.2802 10.6404 87.9735C10.8122 88.1725 10.9931 88.3715 11.1785 88.5659C11.7121 89.1583 12.2683 89.7371 12.8335 90.3024C13.3988 90.8676 13.9776 91.4238 14.57 91.9574C14.7644 92.1428 14.9634 92.3237 15.1624 92.4955C16.1632 93.3999 17.1958 94.2516 18.2599 95.0505C19.2141 95.7875 20.1999 96.4885 21.2038 97.1532L46.6491 97.1532L51.1711 99.8664L55.6931 97.1532ZM68.7526 37.7341C68.9244 37.9421 69.0872 38.1547 69.2455 38.3717C72.192 42.2807 73.7857 47.0427 73.7857 51.9377C73.7857 56.8328 72.192 61.5948 69.2455 65.5037C69.0872 65.7208 68.9244 65.9559 68.7526 66.1413C67.7459 67.3892 66.609 68.5261 65.3611 69.5328C65.1531 69.7047 64.9406 69.8674 64.7235 70.0257C61.4319 72.507 57.5206 74.0339 53.4185 74.4392C51.9149 74.5899 50.4001 74.5899 48.8965 74.4392C46.1773 74.1676 43.5307 73.4013 41.087 72.1782L48.1142 65.151C48.3721 65.2157 48.6332 65.267 48.8965 65.3047C50.3927 65.5641 51.9223 65.5641 53.4185 65.3047C53.6817 65.267 53.9429 65.2157 54.2008 65.151C55.6198 64.8284 56.9762 64.2754 58.2163 63.514C58.4515 63.3739 58.6685 63.2292 58.8992 63.0618C60.2253 62.1456 61.3744 60.9965 62.2907 59.6703C62.4535 59.4488 62.5982 59.2181 62.7429 58.9875C64.0386 56.861 64.724 54.4189 64.724 51.9287C64.724 49.4385 64.0386 46.9964 62.7429 44.8698C62.6027 44.6347 62.458 44.4176 62.2907 44.187C61.3744 42.8608 60.2253 41.7117 58.8992 40.7955C58.6776 40.6327 58.447 40.488 58.2163 40.3433C56.9763 39.5819 55.6198 39.029 54.2008 38.7063C53.9429 38.6416 53.6817 38.5903 53.4185 38.5526C51.9223 38.2933 50.3927 38.2933 48.8965 38.5526C48.6332 38.5903 48.3721 38.6416 48.1142 38.7063L41.1006 31.6882C43.5443 30.4651 46.1909 29.6988 48.9101 29.4272C50.4136 29.2765 51.9285 29.2765 53.4321 29.4272C57.5342 29.8325 61.4454 31.3594 64.7371 33.8407C64.9541 33.9989 65.1893 34.1617 65.3747 34.3336C66.6225 35.3403 67.7595 36.4772 68.7662 37.7251L68.7526 37.7341ZM43.3028 56.4009C43.1621 56.1589 43.0338 55.9098 42.9184 55.6548C42.3903 54.4852 42.1172 53.2165 42.1172 51.9332C42.1172 50.6499 42.3903 49.3812 42.9184 48.2116C43.0338 47.9565 43.1621 47.7075 43.3028 47.4655C44.1049 46.0484 45.2772 44.8761 46.6943 44.074C46.9363 43.9333 47.1854 43.805 47.4404 43.6896C48.6097 43.1601 49.8785 42.8862 51.162 42.8862C52.4456 42.8862 53.7144 43.1601 54.8836 43.6896C55.1417 43.8047 55.3938 43.933 55.6388 44.074C57.0559 44.8761 58.2282 46.0484 59.0303 47.4655C59.171 47.7075 59.2992 47.9565 59.4147 48.2116C59.9428 49.3812 60.2159 50.6499 60.2159 51.9332C60.2159 53.2165 59.9428 54.4852 59.4147 55.6548C59.2992 55.9098 59.171 56.1589 59.0303 56.4009C58.2308 57.8246 57.0582 59.0034 55.6388 59.8105C55.3967 59.9512 55.1477 60.0795 54.8927 60.1949C53.7234 60.7244 52.4546 60.9983 51.1711 60.9983C49.8875 60.9983 48.6187 60.7244 47.4495 60.1949C47.1944 60.0795 46.9454 59.9512 46.7033 59.8105C45.2863 59.0084 44.114 57.8361 43.3118 56.419L43.3028 56.4009ZM24.0391 29.3232L6.85546 29.3232C8.13022 26.8343 9.61107 24.4565 11.2825 22.2146C12.0829 21.1429 12.9285 20.0983 13.8148 19.0944C13.9912 18.8909 14.1675 18.6965 14.3484 18.4975C14.885 17.8946 15.4367 17.3158 16.0035 16.7611C16.5702 16.2064 17.149 15.6547 17.7399 15.106C17.9389 14.9251 18.1333 14.7488 18.3368 14.5724C19.3407 13.668 20.3853 12.8405 21.457 12.0401C21.8233 11.7688 22.1941 11.4975 22.5694 11.2352L46.6491 11.2352L51.1711 8.522L55.6931 11.2352L79.7772 11.2352C80.1526 11.4975 80.5234 11.7688 80.8897 12.0401C81.9614 12.8405 83.0059 13.6861 84.0098 14.5724C84.2133 14.7488 84.4078 14.9252 84.6067 15.106C85.2097 15.6426 85.7885 16.1943 86.3432 16.7611C86.8979 17.3278 87.4496 17.9067 87.9982 18.4975C88.1791 18.6965 88.3555 18.8909 88.5318 19.0944C89.4362 20.0983 90.2638 21.1429 91.0642 22.2146C92.7356 24.4565 94.2164 26.8343 95.4912 29.3232L78.3076 29.3232L72.4833 35.143C72.3205 34.935 72.1531 34.7225 71.9768 34.519C71.4658 33.904 70.9232 33.3116 70.3579 32.7464C69.7927 32.1811 69.2048 31.6385 68.5853 31.1275C68.3818 30.9511 68.1693 30.7838 67.9613 30.621C66.8946 29.7823 65.7653 29.0264 64.5833 28.36C61.1634 26.4079 57.3568 25.2301 53.4321 24.9097L53.4321 24.8148C53.4321 24.2151 53.1939 23.64 52.7698 23.216C52.3458 22.792 51.7707 22.5538 51.1711 22.5538C50.5714 22.5538 49.9963 22.792 49.5723 23.216C49.1483 23.64 48.9101 24.2151 48.9101 24.8148L48.9101 24.9097C44.9853 25.2301 41.1787 26.4079 37.7588 28.36C36.5768 29.0264 35.4475 29.7823 34.3809 30.621C34.1729 30.7838 33.9603 30.9511 33.7568 31.1275C33.1418 31.6385 32.5495 32.1811 31.9842 32.7464C31.419 33.3116 30.8763 33.904 30.3653 34.519C30.189 34.7225 30.0217 34.935 29.8589 35.143L24.0391 29.3232ZM33.0831 38.3672C33.2413 38.1501 33.4041 37.915 33.576 37.7296C34.5827 36.4817 35.7196 35.3448 36.9675 34.3381C37.1755 34.1663 37.388 34.0035 37.6051 33.8452L44.1122 40.3659C43.8771 40.5061 43.66 40.6508 43.4294 40.8181C42.1032 41.7344 40.9541 42.8834 40.0379 44.2096C39.8751 44.4312 39.7304 44.6618 39.5857 44.8924L33.0831 38.3672ZM28.5611 51.9332C28.5558 48.4382 29.3656 44.99 30.9261 41.8627L37.9533 48.8899C37.4891 50.8922 37.4891 52.9742 37.9533 54.9765L30.9261 62.0037C29.3656 58.8764 28.5558 55.4282 28.5611 51.9332V51.9332ZM33.5805 66.1323C33.4086 65.9243 33.2459 65.7117 33.0876 65.4947L39.5902 58.992C39.7304 59.2272 39.8751 59.4442 40.0424 59.6749C40.9586 61.001 42.1077 62.1501 43.4339 63.0664C43.6555 63.2292 43.8861 63.3739 44.1167 63.5186L37.6141 70.0212C37.397 69.8629 37.1845 69.7001 36.9765 69.5283C35.7286 68.5216 34.5917 67.3847 33.585 66.1368L33.5805 66.1323ZM46.6491 92.6312L22.5649 92.6312C22.1896 92.3689 21.8188 92.0976 21.4525 91.8263C20.3808 91.0259 19.3362 90.1803 18.3323 89.294C18.1288 89.1176 17.9344 88.9412 17.7354 88.7604C17.1325 88.2238 16.5536 87.6721 15.9989 87.1053C15.4442 86.5386 14.8926 85.9597 14.3439 85.3689C14.163 85.1699 13.9866 84.9754 13.8103 84.772C12.9059 83.7681 12.0784 82.7235 11.278 81.6518C9.60654 79.4099 8.12569 77.0321 6.85093 74.5432L24.0345 74.5432L29.8634 68.7234C30.0262 68.9314 30.1935 69.1439 30.3699 69.3474C30.8808 69.9624 31.4235 70.5548 31.9887 71.12C32.554 71.6853 33.1464 72.2279 33.7614 72.7389C33.9648 72.9153 34.1774 73.0826 34.3854 73.2454C35.452 74.0841 36.5813 74.84 37.7633 75.5064C41.1832 77.4585 44.9898 78.6363 48.9146 78.9567L48.9146 79.0516C48.9146 79.6513 49.1528 80.2264 49.5768 80.6504C50.0008 81.0744 50.5759 81.3126 51.1756 81.3126C51.7752 81.3126 52.3503 81.0744 52.7744 80.6504C53.1984 80.2264 53.4366 79.6513 53.4366 79.0516L53.4366 78.9567C57.3613 78.6363 61.168 77.4585 64.5878 75.5064C65.7699 74.84 66.8991 74.0841 67.9658 73.2454C68.1738 73.0826 68.3863 72.9153 68.5898 72.7389C69.2048 72.2279 69.7972 71.6853 70.3624 71.12C70.9277 70.5548 71.4703 69.9624 71.9813 69.3474C72.1577 69.1439 72.325 68.9314 72.4878 68.7234L78.3076 74.5432L95.4912 74.5432C94.2164 77.0321 92.7356 79.4099 91.0641 81.6518C90.2638 82.7235 89.4181 83.7681 88.5318 84.772C88.3555 84.9755 88.1791 85.1699 87.9982 85.3689C87.4586 85.9718 86.9069 86.5506 86.3432 87.1053C85.7794 87.66 85.2006 88.2087 84.6067 88.7513C84.4078 88.9322 84.2133 89.1086 84.0098 89.2849C83.0059 90.1893 81.9614 91.0168 80.8896 91.8172C80.5234 92.0886 80.1526 92.3599 79.7772 92.6222L55.6931 92.6222L51.1711 95.3354L46.6491 92.6312Z" fill="#F7941D" fill-opacity="0.9" stroke="#F7941D" stroke-opacity="0.9" stroke-width="2" stroke-miterlimit="10" mask="url(#path-1-inside-1_221_13)"/>
<mask id="path-2-inside-2_221_13" fill="white">
<path d="M46.667 6.71301L21.1901 6.71301C20.1862 7.37774 19.2004 8.06962 18.2463 8.81575C17.1791 9.62669 16.1466 10.4783 15.1487 11.3707C14.9497 11.5425 14.7508 11.7234 14.5563 11.9088C13.9639 12.4424 13.3851 12.9986 12.8199 13.5638C12.2546 14.1291 11.6984 14.7079 11.1648 15.3003C10.9794 15.4947 10.7985 15.6937 10.6267 15.8927C10.0087 16.583 9.40576 17.2915 8.8179 18.018C8.55562 18.3391 8.30239 18.6601 8.0582 18.9902C7.1749 20.1388 6.34135 21.3221 5.55753 22.54C3.26881 26.0778 1.40352 29.8721 -2.88588e-06 33.845L22.9265 33.845L27.6023 38.5208C25.2776 42.6086 24.0554 47.2304 24.0554 51.933C24.0554 56.6356 25.2776 61.2574 27.6023 65.3453L22.9265 70.021L0.0135647 70.021C1.41709 73.9939 3.28238 77.7883 5.5711 81.326C6.35492 82.5319 7.18847 83.7151 8.07177 84.8758C8.31596 85.2059 8.56919 85.5269 8.83147 85.848C9.41028 86.5715 10.0132 87.28 10.6403 87.9734C10.8121 88.1723 10.993 88.3713 11.1784 88.5657C11.6984 89.1581 12.2546 89.7279 12.8063 90.3022C13.358 90.8765 13.9504 91.4236 14.5428 91.9572C14.7372 92.1426 14.9362 92.3235 15.1351 92.4954C16.136 93.3998 17.1685 94.2514 18.2327 95.0503C19.1868 95.7874 20.1726 96.4883 21.1765 97.153L46.6535 97.153L51.1755 99.8662L55.6975 97.153L81.1744 97.153C82.1783 96.4883 83.1641 95.7964 84.1183 95.0503C85.1854 94.2423 86.218 93.3907 87.2158 92.4953C87.4148 92.3235 87.6138 92.1426 87.8082 91.9572C88.4006 91.4236 88.9794 90.8674 89.5447 90.3022C90.1099 89.7369 90.6661 89.1581 91.1997 88.5657C91.3851 88.3713 91.566 88.1723 91.7378 87.9733C92.3558 87.28 92.9588 86.5715 93.5466 85.848C93.8089 85.5269 94.0621 85.2059 94.3063 84.8758C95.1896 83.7272 96.0232 82.5439 96.807 81.326C99.0961 77.7891 100.96 73.9946 102.36 70.021L79.4515 70.021L74.7577 65.3453C77.0824 61.2574 78.3046 56.6356 78.3046 51.933C78.3046 47.2304 77.0824 42.6086 74.7577 38.5208L79.4335 33.845L102.342 33.845C100.942 29.8714 99.078 26.0769 96.7889 22.54C96.0081 21.3341 95.1745 20.1509 94.2882 18.9902C94.044 18.6601 93.7908 18.3391 93.5285 18.018C92.9497 17.2945 92.3468 16.586 91.7197 15.8927C91.5479 15.6937 91.367 15.4947 91.1816 15.3003C90.648 14.7079 90.0918 14.1291 89.5266 13.5638C88.9613 12.9986 88.3825 12.4424 87.7901 11.9088C87.5957 11.7234 87.3967 11.5425 87.1977 11.3707C86.1969 10.4663 85.1643 9.61463 84.1002 8.81574C83.146 8.07866 82.1602 7.37774 81.1563 6.71301L55.711 6.71301L51.189 3.99981L46.667 6.71301ZM33.6075 66.1321C33.4357 65.9241 33.2729 65.7115 33.1146 65.4945C30.1681 61.5855 28.5744 56.8235 28.5744 51.9285C28.5744 47.0334 30.1681 42.2714 33.1146 38.3625C33.2729 38.1454 33.4357 37.9103 33.6075 37.7249C34.6142 36.477 35.7511 35.3401 36.999 34.3334C37.207 34.1616 37.4196 33.9988 37.6366 33.8405C40.9282 31.3593 44.8395 29.8323 48.9416 29.427C50.4452 29.2763 51.96 29.2763 53.4636 29.427C56.1828 29.6986 58.8294 30.4649 61.2731 31.688L54.2459 38.7152C53.988 38.6505 53.7269 38.5992 53.4636 38.5615C51.9674 38.3022 50.4378 38.3022 48.9416 38.5615C48.6784 38.5992 48.4172 38.6505 48.1593 38.7152C46.7403 39.0378 45.3839 39.5908 44.1438 40.3522C43.9086 40.4923 43.6916 40.6371 43.4609 40.8044C42.1348 41.7206 40.9857 42.8697 40.0694 44.1959C39.9067 44.4174 39.7619 44.6481 39.6172 44.8787C38.3215 47.0052 37.6361 49.4474 37.6361 51.9375C37.6361 54.4277 38.3215 56.8699 39.6172 58.9964C39.7574 59.2315 39.9021 59.4486 40.0694 59.6792C40.9857 61.0054 42.1348 62.1545 43.4609 63.0707C43.6825 63.2335 43.9131 63.3782 44.1438 63.5229C45.3839 64.2843 46.7403 64.8373 48.1593 65.1599C48.4172 65.2246 48.6784 65.2759 48.9416 65.3136C50.4378 65.5729 51.9674 65.5729 53.4636 65.3136C53.7269 65.2759 53.988 65.2246 54.2459 65.1599L61.2595 72.178C58.8158 73.4011 56.1692 74.1674 53.45 74.439C51.9465 74.5897 50.4316 74.5897 48.928 74.439C44.826 74.0337 40.9147 72.5068 37.623 70.0255C37.406 69.8673 37.1708 69.7045 36.9854 69.5326C35.7376 68.5259 34.6006 67.389 33.5939 66.1411L33.6075 66.1321ZM59.0573 47.4653C59.198 47.7073 59.3263 47.9564 59.4417 48.2114C59.9698 49.381 60.2429 50.6497 60.2429 51.933C60.2429 53.2163 59.9698 54.485 59.4417 55.6546C59.3263 55.9097 59.198 56.1587 59.0573 56.4007C58.2552 57.8178 57.0829 58.9901 55.6658 59.7922C55.4238 59.9329 55.1747 60.0612 54.9197 60.1766C53.7504 60.7061 52.4817 60.98 51.1981 60.98C49.9145 60.98 48.6457 60.7061 47.4765 60.1766C47.2184 60.0615 46.9663 59.9332 46.7213 59.7922C45.3042 58.9901 44.1319 57.8178 43.3298 56.4007C43.1891 56.1587 43.0609 55.9097 42.9454 55.6546C42.4173 54.485 42.1442 53.2163 42.1442 51.933C42.1442 50.6497 42.4173 49.381 42.9454 48.2114C43.0609 47.9564 43.1891 47.7073 43.3298 47.4653C44.1293 46.0416 45.3019 44.8628 46.7213 44.0557C46.9634 43.915 47.2124 43.7867 47.4674 43.6713C48.6367 43.1418 49.9055 42.8679 51.189 42.8679C52.4726 42.8679 53.7414 43.1418 54.9106 43.6713C55.1657 43.7867 55.4147 43.915 55.6568 44.0557C57.0738 44.8578 58.2461 46.0301 59.0483 47.4472L59.0573 47.4653ZM78.321 74.543L95.5046 74.543C94.2299 77.0319 92.749 79.4097 91.0776 81.6516C90.2772 82.7233 89.4316 83.7679 88.5453 84.7718C88.3689 84.9753 88.1926 85.1697 88.0117 85.3687C87.4751 85.9716 86.9234 86.5504 86.3566 87.1051C85.7899 87.6598 85.2111 88.2115 84.6202 88.7602C84.4212 88.9411 84.2268 89.1174 84.0233 89.2938C83.0194 90.1982 81.9748 91.0257 80.9031 91.8261C80.5368 92.0974 80.166 92.3687 79.7907 92.631L55.711 92.631L51.189 95.3442L46.667 92.631L22.5829 92.631C22.2075 92.3687 21.8367 92.0974 21.4705 91.8261C20.3987 91.0257 19.3542 90.1801 18.3503 89.2938C18.1468 89.1174 17.9523 88.9411 17.7534 88.7602C17.1504 88.2236 16.5716 87.6719 16.0169 87.1051C15.4622 86.5384 14.9105 85.9596 14.3619 85.3687C14.181 85.1697 14.0046 84.9753 13.8283 84.7718C12.9239 83.7679 12.0963 82.7233 11.296 81.6516C9.62453 79.4097 8.14368 77.0319 6.86892 74.543L24.0525 74.543L29.8769 68.7232C30.0396 68.9312 30.207 69.1437 30.3833 69.3472C30.8943 69.9622 31.4369 70.5546 32.0022 71.1199C32.5674 71.6851 33.1553 72.2277 33.7748 72.7387C33.9783 72.9151 34.1908 73.0824 34.3989 73.2452C35.4655 74.084 36.5948 74.8398 37.7768 75.5062C41.1967 77.4583 45.0033 78.6361 48.928 78.9565L48.928 79.0514C48.928 79.6511 49.1663 80.2262 49.5903 80.6502C50.0143 81.0742 50.5894 81.3124 51.189 81.3124C51.7887 81.3124 52.3638 81.0742 52.7878 80.6502C53.2118 80.2262 53.45 79.6511 53.45 79.0514L53.45 78.9565C57.3748 78.6361 61.1814 77.4583 64.6013 75.5062C65.7833 74.8398 66.9126 74.0839 67.9792 73.2452C68.1872 73.0824 68.3998 72.9151 68.6033 72.7387C69.2183 72.2277 69.8106 71.6851 70.3759 71.1199C70.9411 70.5546 71.4838 69.9622 71.9948 69.3472C72.1711 69.1437 72.3384 68.9312 72.5012 68.7232L78.321 74.543ZM69.277 65.499C69.1188 65.7161 68.956 65.9512 68.7841 66.1366C67.7774 67.3845 66.6405 68.5214 65.3926 69.5281C65.1846 69.6999 64.9721 69.8627 64.755 70.021L58.2479 63.5003C58.483 63.3601 58.7001 63.2154 58.9307 63.0481C60.2569 62.1318 61.406 60.9828 62.3222 59.6566C62.485 59.435 62.6297 59.2044 62.7744 58.9738L69.277 65.499ZM73.799 51.933C73.8043 55.4281 72.9945 58.8762 71.434 62.0035L64.4069 54.9763C64.871 52.974 64.871 50.892 64.4069 48.8897L71.434 41.8625C72.9945 44.9898 73.8043 48.438 73.799 51.933V51.933ZM68.7796 37.7339C68.9515 37.9419 69.1143 38.1545 69.2725 38.3715L62.7699 44.8742C62.6297 44.639 62.485 44.422 62.3177 44.1913C61.4015 42.8652 60.2524 41.7161 58.9262 40.7998C58.7046 40.6371 58.474 40.4924 58.2434 40.3476L64.746 33.845C64.9631 34.0033 65.1756 34.1661 65.3836 34.3379C66.6315 35.3446 67.7684 36.4815 68.7751 37.7294L68.7796 37.7339ZM55.711 11.235L79.7952 11.235C80.1705 11.4973 80.5413 11.7686 80.9076 12.0399C81.9793 12.8403 83.0239 13.6859 84.0278 14.5722C84.2313 14.7486 84.4257 14.925 84.6247 15.1058C85.2276 15.6424 85.8065 16.1941 86.3612 16.7609C86.9159 17.3276 87.4675 17.9065 88.0162 18.4973C88.1971 18.6963 88.3735 18.8908 88.5498 19.0942C89.4542 20.0981 90.2817 21.1427 91.0821 22.2144C92.7536 24.4563 94.2344 26.8341 95.5092 29.323L78.3256 29.323L72.4967 35.1428C72.3339 34.9348 72.1666 34.7223 71.9902 34.5188C71.4793 33.9038 70.9366 33.3114 70.3714 32.7462C69.8061 32.1809 69.2137 31.6383 68.5987 31.1273C68.3953 30.9509 68.1827 30.7836 67.9747 30.6208C66.9081 29.7821 65.7788 29.0262 64.5968 28.3598C61.1769 26.4077 57.3703 25.2299 53.4455 24.9095L53.4455 24.8146C53.4455 24.2149 53.2073 23.6398 52.7833 23.2158C52.3593 22.7918 51.7842 22.5536 51.1845 22.5536C50.5849 22.5536 50.0098 22.7918 49.5857 23.2158C49.1617 23.6398 48.9235 24.2149 48.9235 24.8146L48.9235 24.9095C44.9988 25.2299 41.1921 26.4077 37.7723 28.3598C36.5902 29.0262 35.461 29.7821 34.3943 30.6208C34.1863 30.7836 33.9738 30.9509 33.7703 31.1273C33.1553 31.6383 32.5629 32.1809 31.9977 32.7462C31.4324 33.3114 30.8898 33.9038 30.3788 34.5188C30.2024 34.7223 30.0351 34.9348 29.8723 35.1428L24.0525 29.323L6.86892 29.323C8.14368 26.8341 9.62452 24.4563 11.296 22.2144C12.0963 21.1427 12.942 20.0981 13.8283 19.0942C14.0046 18.8908 14.181 18.6963 14.3619 18.4973C14.9015 17.8944 15.4532 17.3156 16.0169 16.7609C16.5807 16.2062 17.1595 15.6575 17.7534 15.1149C17.9523 14.934 18.1468 14.7577 18.3503 14.5813C19.3542 13.6769 20.3987 12.8494 21.4705 12.049C21.8367 11.7777 22.2075 11.5063 22.5829 11.2441L46.667 11.2441L51.189 8.53086L55.711 11.235Z"/>
</mask>
<path d="M46.667 6.71301L21.1901 6.71301C20.1862 7.37774 19.2004 8.06962 18.2463 8.81575C17.1791 9.62669 16.1466 10.4783 15.1487 11.3707C14.9497 11.5425 14.7508 11.7234 14.5563 11.9088C13.9639 12.4424 13.3851 12.9986 12.8199 13.5638C12.2546 14.1291 11.6984 14.7079 11.1648 15.3003C10.9794 15.4947 10.7985 15.6937 10.6267 15.8927C10.0087 16.583 9.40576 17.2915 8.8179 18.018C8.55562 18.3391 8.30239 18.6601 8.0582 18.9902C7.1749 20.1388 6.34135 21.3221 5.55753 22.54C3.26881 26.0778 1.40352 29.8721 -2.88588e-06 33.845L22.9265 33.845L27.6023 38.5208C25.2776 42.6086 24.0554 47.2304 24.0554 51.933C24.0554 56.6356 25.2776 61.2574 27.6023 65.3453L22.9265 70.021L0.0135647 70.021C1.41709 73.9939 3.28238 77.7883 5.5711 81.326C6.35492 82.5319 7.18847 83.7151 8.07177 84.8758C8.31596 85.2059 8.56919 85.5269 8.83147 85.848C9.41028 86.5715 10.0132 87.28 10.6403 87.9734C10.8121 88.1723 10.993 88.3713 11.1784 88.5657C11.6984 89.1581 12.2546 89.7279 12.8063 90.3022C13.358 90.8765 13.9504 91.4236 14.5428 91.9572C14.7372 92.1426 14.9362 92.3235 15.1351 92.4954C16.136 93.3998 17.1685 94.2514 18.2327 95.0503C19.1868 95.7874 20.1726 96.4883 21.1765 97.153L46.6535 97.153L51.1755 99.8662L55.6975 97.153L81.1744 97.153C82.1783 96.4883 83.1641 95.7964 84.1183 95.0503C85.1854 94.2423 86.218 93.3907 87.2158 92.4953C87.4148 92.3235 87.6138 92.1426 87.8082 91.9572C88.4006 91.4236 88.9794 90.8674 89.5447 90.3022C90.1099 89.7369 90.6661 89.1581 91.1997 88.5657C91.3851 88.3713 91.566 88.1723 91.7378 87.9733C92.3558 87.28 92.9588 86.5715 93.5466 85.848C93.8089 85.5269 94.0621 85.2059 94.3063 84.8758C95.1896 83.7272 96.0232 82.5439 96.807 81.326C99.0961 77.7891 100.96 73.9946 102.36 70.021L79.4515 70.021L74.7577 65.3453C77.0824 61.2574 78.3046 56.6356 78.3046 51.933C78.3046 47.2304 77.0824 42.6086 74.7577 38.5208L79.4335 33.845L102.342 33.845C100.942 29.8714 99.078 26.0769 96.7889 22.54C96.0081 21.3341 95.1745 20.1509 94.2882 18.9902C94.044 18.6601 93.7908 18.3391 93.5285 18.018C92.9497 17.2945 92.3468 16.586 91.7197 15.8927C91.5479 15.6937 91.367 15.4947 91.1816 15.3003C90.648 14.7079 90.0918 14.1291 89.5266 13.5638C88.9613 12.9986 88.3825 12.4424 87.7901 11.9088C87.5957 11.7234 87.3967 11.5425 87.1977 11.3707C86.1969 10.4663 85.1643 9.61463 84.1002 8.81574C83.146 8.07866 82.1602 7.37774 81.1563 6.71301L55.711 6.71301L51.189 3.99981L46.667 6.71301ZM33.6075 66.1321C33.4357 65.9241 33.2729 65.7115 33.1146 65.4945C30.1681 61.5855 28.5744 56.8235 28.5744 51.9285C28.5744 47.0334 30.1681 42.2714 33.1146 38.3625C33.2729 38.1454 33.4357 37.9103 33.6075 37.7249C34.6142 36.477 35.7511 35.3401 36.999 34.3334C37.207 34.1616 37.4196 33.9988 37.6366 33.8405C40.9282 31.3593 44.8395 29.8323 48.9416 29.427C50.4452 29.2763 51.96 29.2763 53.4636 29.427C56.1828 29.6986 58.8294 30.4649 61.2731 31.688L54.2459 38.7152C53.988 38.6505 53.7269 38.5992 53.4636 38.5615C51.9674 38.3022 50.4378 38.3022 48.9416 38.5615C48.6784 38.5992 48.4172 38.6505 48.1593 38.7152C46.7403 39.0378 45.3839 39.5908 44.1438 40.3522C43.9086 40.4923 43.6916 40.6371 43.4609 40.8044C42.1348 41.7206 40.9857 42.8697 40.0694 44.1959C39.9067 44.4174 39.7619 44.6481 39.6172 44.8787C38.3215 47.0052 37.6361 49.4474 37.6361 51.9375C37.6361 54.4277 38.3215 56.8699 39.6172 58.9964C39.7574 59.2315 39.9021 59.4486 40.0694 59.6792C40.9857 61.0054 42.1348 62.1545 43.4609 63.0707C43.6825 63.2335 43.9131 63.3782 44.1438 63.5229C45.3839 64.2843 46.7403 64.8373 48.1593 65.1599C48.4172 65.2246 48.6784 65.2759 48.9416 65.3136C50.4378 65.5729 51.9674 65.5729 53.4636 65.3136C53.7269 65.2759 53.988 65.2246 54.2459 65.1599L61.2595 72.178C58.8158 73.4011 56.1692 74.1674 53.45 74.439C51.9465 74.5897 50.4316 74.5897 48.928 74.439C44.826 74.0337 40.9147 72.5068 37.623 70.0255C37.406 69.8673 37.1708 69.7045 36.9854 69.5326C35.7376 68.5259 34.6006 67.389 33.5939 66.1411L33.6075 66.1321ZM59.0573 47.4653C59.198 47.7073 59.3263 47.9564 59.4417 48.2114C59.9698 49.381 60.2429 50.6497 60.2429 51.933C60.2429 53.2163 59.9698 54.485 59.4417 55.6546C59.3263 55.9097 59.198 56.1587 59.0573 56.4007C58.2552 57.8178 57.0829 58.9901 55.6658 59.7922C55.4238 59.9329 55.1747 60.0612 54.9197 60.1766C53.7504 60.7061 52.4817 60.98 51.1981 60.98C49.9145 60.98 48.6457 60.7061 47.4765 60.1766C47.2184 60.0615 46.9663 59.9332 46.7213 59.7922C45.3042 58.9901 44.1319 57.8178 43.3298 56.4007C43.1891 56.1587 43.0609 55.9097 42.9454 55.6546C42.4173 54.485 42.1442 53.2163 42.1442 51.933C42.1442 50.6497 42.4173 49.381 42.9454 48.2114C43.0609 47.9564 43.1891 47.7073 43.3298 47.4653C44.1293 46.0416 45.3019 44.8628 46.7213 44.0557C46.9634 43.915 47.2124 43.7867 47.4674 43.6713C48.6367 43.1418 49.9055 42.8679 51.189 42.8679C52.4726 42.8679 53.7414 43.1418 54.9106 43.6713C55.1657 43.7867 55.4147 43.915 55.6568 44.0557C57.0738 44.8578 58.2461 46.0301 59.0483 47.4472L59.0573 47.4653ZM78.321 74.543L95.5046 74.543C94.2299 77.0319 92.749 79.4097 91.0776 81.6516C90.2772 82.7233 89.4316 83.7679 88.5453 84.7718C88.3689 84.9753 88.1926 85.1697 88.0117 85.3687C87.4751 85.9716 86.9234 86.5504 86.3566 87.1051C85.7899 87.6598 85.2111 88.2115 84.6202 88.7602C84.4212 88.9411 84.2268 89.1174 84.0233 89.2938C83.0194 90.1982 81.9748 91.0257 80.9031 91.8261C80.5368 92.0974 80.166 92.3687 79.7907 92.631L55.711 92.631L51.189 95.3442L46.667 92.631L22.5829 92.631C22.2075 92.3687 21.8367 92.0974 21.4705 91.8261C20.3987 91.0257 19.3542 90.1801 18.3503 89.2938C18.1468 89.1174 17.9523 88.9411 17.7534 88.7602C17.1504 88.2236 16.5716 87.6719 16.0169 87.1051C15.4622 86.5384 14.9105 85.9596 14.3619 85.3687C14.181 85.1697 14.0046 84.9753 13.8283 84.7718C12.9239 83.7679 12.0963 82.7233 11.296 81.6516C9.62453 79.4097 8.14368 77.0319 6.86892 74.543L24.0525 74.543L29.8769 68.7232C30.0396 68.9312 30.207 69.1437 30.3833 69.3472C30.8943 69.9622 31.4369 70.5546 32.0022 71.1199C32.5674 71.6851 33.1553 72.2277 33.7748 72.7387C33.9783 72.9151 34.1908 73.0824 34.3989 73.2452C35.4655 74.084 36.5948 74.8398 37.7768 75.5062C41.1967 77.4583 45.0033 78.6361 48.928 78.9565L48.928 79.0514C48.928 79.6511 49.1663 80.2262 49.5903 80.6502C50.0143 81.0742 50.5894 81.3124 51.189 81.3124C51.7887 81.3124 52.3638 81.0742 52.7878 80.6502C53.2118 80.2262 53.45 79.6511 53.45 79.0514L53.45 78.9565C57.3748 78.6361 61.1814 77.4583 64.6013 75.5062C65.7833 74.8398 66.9126 74.0839 67.9792 73.2452C68.1872 73.0824 68.3998 72.9151 68.6033 72.7387C69.2183 72.2277 69.8106 71.6851 70.3759 71.1199C70.9411 70.5546 71.4838 69.9622 71.9948 69.3472C72.1711 69.1437 72.3384 68.9312 72.5012 68.7232L78.321 74.543ZM69.277 65.499C69.1188 65.7161 68.956 65.9512 68.7841 66.1366C67.7774 67.3845 66.6405 68.5214 65.3926 69.5281C65.1846 69.6999 64.9721 69.8627 64.755 70.021L58.2479 63.5003C58.483 63.3601 58.7001 63.2154 58.9307 63.0481C60.2569 62.1318 61.406 60.9828 62.3222 59.6566C62.485 59.435 62.6297 59.2044 62.7744 58.9738L69.277 65.499ZM73.799 51.933C73.8043 55.4281 72.9945 58.8762 71.434 62.0035L64.4069 54.9763C64.871 52.974 64.871 50.892 64.4069 48.8897L71.434 41.8625C72.9945 44.9898 73.8043 48.438 73.799 51.933V51.933ZM68.7796 37.7339C68.9515 37.9419 69.1143 38.1545 69.2725 38.3715L62.7699 44.8742C62.6297 44.639 62.485 44.422 62.3177 44.1913C61.4015 42.8652 60.2524 41.7161 58.9262 40.7998C58.7046 40.6371 58.474 40.4924 58.2434 40.3476L64.746 33.845C64.9631 34.0033 65.1756 34.1661 65.3836 34.3379C66.6315 35.3446 67.7684 36.4815 68.7751 37.7294L68.7796 37.7339ZM55.711 11.235L79.7952 11.235C80.1705 11.4973 80.5413 11.7686 80.9076 12.0399C81.9793 12.8403 83.0239 13.6859 84.0278 14.5722C84.2313 14.7486 84.4257 14.925 84.6247 15.1058C85.2276 15.6424 85.8065 16.1941 86.3612 16.7609C86.9159 17.3276 87.4675 17.9065 88.0162 18.4973C88.1971 18.6963 88.3735 18.8908 88.5498 19.0942C89.4542 20.0981 90.2817 21.1427 91.0821 22.2144C92.7536 24.4563 94.2344 26.8341 95.5092 29.323L78.3256 29.323L72.4967 35.1428C72.3339 34.9348 72.1666 34.7223 71.9902 34.5188C71.4793 33.9038 70.9366 33.3114 70.3714 32.7462C69.8061 32.1809 69.2137 31.6383 68.5987 31.1273C68.3953 30.9509 68.1827 30.7836 67.9747 30.6208C66.9081 29.7821 65.7788 29.0262 64.5968 28.3598C61.1769 26.4077 57.3703 25.2299 53.4455 24.9095L53.4455 24.8146C53.4455 24.2149 53.2073 23.6398 52.7833 23.2158C52.3593 22.7918 51.7842 22.5536 51.1845 22.5536C50.5849 22.5536 50.0098 22.7918 49.5857 23.2158C49.1617 23.6398 48.9235 24.2149 48.9235 24.8146L48.9235 24.9095C44.9988 25.2299 41.1921 26.4077 37.7723 28.3598C36.5902 29.0262 35.461 29.7821 34.3943 30.6208C34.1863 30.7836 33.9738 30.9509 33.7703 31.1273C33.1553 31.6383 32.5629 32.1809 31.9977 32.7462C31.4324 33.3114 30.8898 33.9038 30.3788 34.5188C30.2024 34.7223 30.0351 34.9348 29.8723 35.1428L24.0525 29.323L6.86892 29.323C8.14368 26.8341 9.62452 24.4563 11.296 22.2144C12.0963 21.1427 12.942 20.0981 13.8283 19.0942C14.0046 18.8908 14.181 18.6963 14.3619 18.4973C14.9015 17.8944 15.4532 17.3156 16.0169 16.7609C16.5807 16.2062 17.1595 15.6575 17.7534 15.1149C17.9523 14.934 18.1468 14.7577 18.3503 14.5813C19.3542 13.6769 20.3987 12.8494 21.4705 12.049C21.8367 11.7777 22.2075 11.5063 22.5829 11.2441L46.667 11.2441L51.189 8.53086L55.711 11.235Z" fill="#F7941D" fill-opacity="0.9" stroke="#F7941D" stroke-opacity="0.9" stroke-width="2" stroke-miterlimit="10" mask="url(#path-2-inside-2_221_13)"/>
<mask id="path-3-inside-3_221_13" fill="white">
<path d="M97.1532 46.667V21.1901C96.4885 20.1862 95.7966 19.2004 95.0505 18.2463C94.2395 17.1791 93.3879 16.1466 92.4955 15.1487C92.3237 14.9497 92.1428 14.7508 91.9574 14.5563C91.4238 13.9639 90.8676 13.3851 90.3024 12.8199C89.7371 12.2546 89.1583 11.6984 88.5659 11.1648C88.3715 10.9794 88.1725 10.7985 87.9735 10.6267C87.2832 10.0087 86.5747 9.40576 85.8482 8.8179C85.5271 8.55562 85.2061 8.30239 84.876 8.0582C83.7274 7.17491 82.5441 6.34135 81.3262 5.55754C77.7884 3.26881 73.9941 1.40352 70.0212 0V22.9265L65.3455 27.6023C61.2576 25.2776 56.6358 24.0554 51.9332 24.0554C47.2306 24.0554 42.6088 25.2776 38.5209 27.6023L33.8452 22.9265V0.013566C29.8723 1.41709 26.078 3.28238 22.5402 5.5711C21.3343 6.35492 20.1511 7.18847 18.9904 8.07177C18.6603 8.31596 18.3393 8.56919 18.0182 8.83147C17.2947 9.41028 16.5862 10.0132 15.8929 10.6403C15.6939 10.8121 15.4949 10.993 15.3005 11.1784C14.7081 11.6984 14.1383 12.2546 13.564 12.8063C12.9897 13.358 12.4426 13.9504 11.909 14.5428C11.7236 14.7372 11.5427 14.9362 11.3709 15.1351C10.4665 16.136 9.61482 17.1685 8.81593 18.2327C8.07884 19.1868 7.37793 20.1726 6.7132 21.1765V46.6535L4 51.1755L6.7132 55.6975V81.1744C7.37793 82.1783 8.0698 83.1641 8.81593 84.1183C9.62386 85.1854 10.4755 86.218 11.3709 87.2158C11.5427 87.4148 11.7236 87.6138 11.909 87.8082C12.4426 88.4006 12.9988 88.9794 13.564 89.5447C14.1293 90.1099 14.7081 90.6661 15.3005 91.1997C15.4949 91.3851 15.6939 91.566 15.8929 91.7378C16.5862 92.3558 17.2947 92.9588 18.0182 93.5466C18.3393 93.8089 18.6603 94.0621 18.9904 94.3063C20.139 95.1896 21.3223 96.0232 22.5402 96.807C26.0771 99.0961 29.8716 100.96 33.8452 102.36V79.4515L38.5209 74.7577C42.6088 77.0824 47.2306 78.3046 51.9332 78.3046C56.6358 78.3046 61.2576 77.0824 65.3455 74.7577L70.0212 79.4335V102.342C73.9948 100.942 77.7893 99.078 81.3262 96.7889C82.5321 96.0081 83.7153 95.1745 84.876 94.2882C85.2061 94.044 85.5271 93.7908 85.8482 93.5285C86.5717 92.9497 87.2802 92.3468 87.9735 91.7197C88.1725 91.5479 88.3715 91.367 88.5659 91.1816C89.1583 90.648 89.7371 90.0918 90.3024 89.5266C90.8676 88.9613 91.4238 88.3825 91.9574 87.7901C92.1428 87.5957 92.3237 87.3967 92.4955 87.1977C93.3999 86.1969 94.2516 85.1643 95.0505 84.1002C95.7876 83.146 96.4885 82.1602 97.1532 81.1563V55.711L99.8664 51.189L97.1532 46.667ZM37.7341 33.6075C37.9421 33.4357 38.1547 33.2729 38.3717 33.1146C42.2807 30.1681 47.0427 28.5744 51.9377 28.5744C56.8328 28.5744 61.5948 30.1681 65.5037 33.1146C65.7208 33.2729 65.9559 33.4357 66.1413 33.6075C67.3892 34.6142 68.5261 35.7511 69.5328 36.999C69.7047 37.207 69.8674 37.4196 70.0257 37.6366C72.507 40.9282 74.0339 44.8395 74.4392 48.9416C74.5899 50.4452 74.5899 51.96 74.4392 53.4636C74.1676 56.1828 73.4013 58.8294 72.1782 61.2731L65.151 54.2459C65.2157 53.988 65.267 53.7269 65.3047 53.4636C65.5641 51.9674 65.5641 50.4378 65.3047 48.9416C65.267 48.6784 65.2157 48.4172 65.151 48.1593C64.8284 46.7403 64.2754 45.3839 63.514 44.1438C63.3739 43.9086 63.2292 43.6916 63.0618 43.4609C62.1456 42.1348 60.9965 40.9857 59.6703 40.0694C59.4488 39.9067 59.2181 39.7619 58.9875 39.6172C56.861 38.3215 54.4189 37.6361 51.9287 37.6361C49.4385 37.6361 46.9964 38.3215 44.8698 39.6172C44.6347 39.7574 44.4176 39.9021 44.187 40.0694C42.8608 40.9857 41.7117 42.1348 40.7955 43.4609C40.6327 43.6825 40.488 43.9131 40.3433 44.1438C39.5819 45.3839 39.029 46.7403 38.7063 48.1593C38.6416 48.4172 38.5903 48.6784 38.5526 48.9416C38.2933 50.4378 38.2933 51.9674 38.5526 53.4636C38.5903 53.7269 38.6416 53.988 38.7063 54.2459L31.6882 61.2595C30.4651 58.8158 29.6988 56.1692 29.4272 53.45C29.2765 51.9465 29.2765 50.4316 29.4272 48.928C29.8325 44.826 31.3594 40.9147 33.8407 37.623C33.9989 37.406 34.1617 37.1708 34.3336 36.9854C35.3403 35.7376 36.4772 34.6006 37.7251 33.5939L37.7341 33.6075ZM56.4009 59.0573C56.1589 59.198 55.9099 59.3263 55.6548 59.4417C54.4852 59.9698 53.2165 60.2429 51.9332 60.2429C50.6499 60.2429 49.3812 59.9698 48.2116 59.4417C47.9565 59.3263 47.7075 59.198 47.4655 59.0573C46.0484 58.2552 44.8761 57.0829 44.074 55.6658C43.9333 55.4238 43.805 55.1747 43.6896 54.9197C43.1601 53.7504 42.8862 52.4817 42.8862 51.1981C42.8862 49.9145 43.1601 48.6457 43.6896 47.4765C43.8047 47.2184 43.933 46.9663 44.074 46.7213C44.8761 45.3042 46.0484 44.1319 47.4655 43.3298C47.7075 43.1892 47.9565 43.0609 48.2116 42.9454C49.3812 42.4173 50.6499 42.1442 51.9332 42.1442C53.2165 42.1442 54.4852 42.4173 55.6548 42.9454C55.9099 43.0609 56.1589 43.1892 56.4009 43.3298C57.8246 44.1293 59.0034 45.3019 59.8105 46.7213C59.9512 46.9634 60.0795 47.2124 60.1949 47.4674C60.7244 48.6367 60.9983 49.9055 60.9983 51.189C60.9983 52.4726 60.7244 53.7414 60.1949 54.9106C60.0795 55.1657 59.9512 55.4147 59.8105 55.6568C59.0084 57.0738 57.8361 58.2462 56.419 59.0483L56.4009 59.0573ZM29.3232 78.321V95.5047C26.8343 94.2299 24.4565 92.749 22.2146 91.0776C21.1429 90.2772 20.0983 89.4316 19.0944 88.5453C18.8909 88.3689 18.6965 88.1926 18.4975 88.0117C17.8946 87.4751 17.3158 86.9234 16.7611 86.3566C16.2064 85.7899 15.6547 85.2111 15.106 84.6202C14.9252 84.4212 14.7488 84.2268 14.5724 84.0233C13.668 83.0194 12.8405 81.9748 12.0401 80.9031C11.7688 80.5368 11.4975 80.166 11.2352 79.7907V55.711L8.522 51.189L11.2352 46.667V22.5829C11.4975 22.2075 11.7688 21.8367 12.0401 21.4705C12.8405 20.3987 13.6861 19.3542 14.5724 18.3503C14.7488 18.1468 14.9252 17.9523 15.106 17.7534C15.6426 17.1504 16.1943 16.5716 16.7611 16.0169C17.3278 15.4622 17.9067 14.9105 18.4975 14.3619C18.6965 14.181 18.8909 14.0046 19.0944 13.8283C20.0983 12.9239 21.1429 12.0964 22.2146 11.296C24.4565 9.62453 26.8343 8.14368 29.3232 6.86892V24.0525L35.143 29.8769C34.935 30.0396 34.7225 30.207 34.519 30.3833C33.904 30.8943 33.3116 31.4369 32.7464 32.0022C32.1811 32.5674 31.6385 33.1553 31.1275 33.7748C30.9511 33.9783 30.7838 34.1908 30.621 34.3989C29.7823 35.4655 29.0264 36.5948 28.36 37.7768C26.4079 41.1967 25.2301 45.0033 24.9097 48.928H24.8148C24.2151 48.928 23.64 49.1663 23.216 49.5903C22.792 50.0143 22.5538 50.5894 22.5538 51.189C22.5538 51.7887 22.792 52.3638 23.216 52.7878C23.64 53.2118 24.2151 53.45 24.8148 53.45H24.9097C25.2301 57.3748 26.4079 61.1814 28.36 64.6013C29.0264 65.7833 29.7823 66.9126 30.621 67.9792C30.7838 68.1872 30.9511 68.3998 31.1275 68.6033C31.6385 69.2183 32.1811 69.8106 32.7464 70.3759C33.3116 70.9411 33.904 71.4838 34.519 71.9948C34.7225 72.1711 34.935 72.3384 35.143 72.5012L29.3232 78.321ZM38.3672 69.277C38.1501 69.1188 37.915 68.956 37.7296 68.7841C36.4817 67.7774 35.3448 66.6405 34.3381 65.3926C34.1663 65.1846 34.0035 64.9721 33.8452 64.755L40.3659 58.2479C40.5061 58.483 40.6508 58.7001 40.8181 58.9307C41.7344 60.2569 42.8834 61.406 44.2096 62.3222C44.4312 62.485 44.6618 62.6297 44.8924 62.7744L38.3672 69.277ZM51.9332 73.799C48.4382 73.8043 44.99 72.9945 41.8627 71.434L48.8899 64.4069C50.8922 64.871 52.9742 64.871 54.9765 64.4069L62.0037 71.434C58.8764 72.9945 55.4282 73.8043 51.9332 73.799V73.799ZM66.1323 68.7796C65.9243 68.9515 65.7117 69.1143 65.4947 69.2725L58.992 62.7699C59.2272 62.6297 59.4442 62.485 59.6749 62.3177C61.001 61.4015 62.1501 60.2524 63.0664 58.9262C63.2292 58.7046 63.3739 58.474 63.5186 58.2434L70.0212 64.746C69.8629 64.9631 69.7001 65.1756 69.5283 65.3836C68.5216 66.6315 67.3847 67.7684 66.1368 68.7751L66.1323 68.7796ZM92.6312 55.711V79.7952C92.3689 80.1705 92.0976 80.5414 91.8263 80.9076C91.0259 81.9793 90.1803 83.0239 89.294 84.0278C89.1176 84.2313 88.9412 84.4258 88.7604 84.6247C88.2238 85.2277 87.6721 85.8065 87.1053 86.3612C86.5386 86.9159 85.9597 87.4676 85.3689 88.0162C85.1699 88.1971 84.9755 88.3735 84.772 88.5498C83.7681 89.4542 82.7235 90.2817 81.6518 91.0821C79.4099 92.7536 77.0321 94.2344 74.5432 95.5092V78.3256L68.7234 72.4967C68.9314 72.3339 69.1439 72.1666 69.3474 71.9902C69.9624 71.4793 70.5548 70.9366 71.12 70.3714C71.6853 69.8061 72.2279 69.2137 72.7389 68.5987C72.9153 68.3953 73.0826 68.1827 73.2454 67.9747C74.0841 66.9081 74.84 65.7788 75.5064 64.5968C77.4585 61.1769 78.6363 57.3703 78.9567 53.4455H79.0516C79.6513 53.4455 80.2264 53.2073 80.6504 52.7833C81.0744 52.3593 81.3126 51.7842 81.3126 51.1845C81.3126 50.5849 81.0744 50.0098 80.6504 49.5858C80.2264 49.1617 79.6513 48.9235 79.0516 48.9235H78.9567C78.6363 44.9988 77.4585 41.1921 75.5064 37.7723C74.84 36.5902 74.0841 35.461 73.2454 34.3943C73.0826 34.1863 72.9153 33.9738 72.7389 33.7703C72.2279 33.1553 71.6853 32.5629 71.12 31.9977C70.5548 31.4324 69.9624 30.8898 69.3474 30.3788C69.1439 30.2024 68.9314 30.0351 68.7234 29.8723L74.5432 24.0525V6.86892C77.0321 8.14368 79.4099 9.62453 81.6518 11.296C82.7235 12.0964 83.7681 12.942 84.772 13.8283C84.9755 14.0046 85.1699 14.181 85.3689 14.3619C85.9718 14.9015 86.5506 15.4532 87.1053 16.0169C87.66 16.5807 88.2087 17.1595 88.7513 17.7534C88.9322 17.9523 89.1086 18.1468 89.2849 18.3503C90.1893 19.3542 91.0168 20.3987 91.8172 21.4705C92.0886 21.8367 92.3599 22.2075 92.6222 22.5829V46.667L95.3354 51.189L92.6312 55.711Z"/>
</mask>
<path d="M97.1532 46.667V21.1901C96.4885 20.1862 95.7966 19.2004 95.0505 18.2463C94.2395 17.1791 93.3879 16.1466 92.4955 15.1487C92.3237 14.9497 92.1428 14.7508 91.9574 14.5563C91.4238 13.9639 90.8676 13.3851 90.3024 12.8199C89.7371 12.2546 89.1583 11.6984 88.5659 11.1648C88.3715 10.9794 88.1725 10.7985 87.9735 10.6267C87.2832 10.0087 86.5747 9.40576 85.8482 8.8179C85.5271 8.55562 85.2061 8.30239 84.876 8.0582C83.7274 7.17491 82.5441 6.34135 81.3262 5.55754C77.7884 3.26881 73.9941 1.40352 70.0212 0V22.9265L65.3455 27.6023C61.2576 25.2776 56.6358 24.0554 51.9332 24.0554C47.2306 24.0554 42.6088 25.2776 38.5209 27.6023L33.8452 22.9265V0.013566C29.8723 1.41709 26.078 3.28238 22.5402 5.5711C21.3343 6.35492 20.1511 7.18847 18.9904 8.07177C18.6603 8.31596 18.3393 8.56919 18.0182 8.83147C17.2947 9.41028 16.5862 10.0132 15.8929 10.6403C15.6939 10.8121 15.4949 10.993 15.3005 11.1784C14.7081 11.6984 14.1383 12.2546 13.564 12.8063C12.9897 13.358 12.4426 13.9504 11.909 14.5428C11.7236 14.7372 11.5427 14.9362 11.3709 15.1351C10.4665 16.136 9.61482 17.1685 8.81593 18.2327C8.07884 19.1868 7.37793 20.1726 6.7132 21.1765V46.6535L4 51.1755L6.7132 55.6975V81.1744C7.37793 82.1783 8.0698 83.1641 8.81593 84.1183C9.62386 85.1854 10.4755 86.218 11.3709 87.2158C11.5427 87.4148 11.7236 87.6138 11.909 87.8082C12.4426 88.4006 12.9988 88.9794 13.564 89.5447C14.1293 90.1099 14.7081 90.6661 15.3005 91.1997C15.4949 91.3851 15.6939 91.566 15.8929 91.7378C16.5862 92.3558 17.2947 92.9588 18.0182 93.5466C18.3393 93.8089 18.6603 94.0621 18.9904 94.3063C20.139 95.1896 21.3223 96.0232 22.5402 96.807C26.0771 99.0961 29.8716 100.96 33.8452 102.36V79.4515L38.5209 74.7577C42.6088 77.0824 47.2306 78.3046 51.9332 78.3046C56.6358 78.3046 61.2576 77.0824 65.3455 74.7577L70.0212 79.4335V102.342C73.9948 100.942 77.7893 99.078 81.3262 96.7889C82.5321 96.0081 83.7153 95.1745 84.876 94.2882C85.2061 94.044 85.5271 93.7908 85.8482 93.5285C86.5717 92.9497 87.2802 92.3468 87.9735 91.7197C88.1725 91.5479 88.3715 91.367 88.5659 91.1816C89.1583 90.648 89.7371 90.0918 90.3024 89.5266C90.8676 88.9613 91.4238 88.3825 91.9574 87.7901C92.1428 87.5957 92.3237 87.3967 92.4955 87.1977C93.3999 86.1969 94.2516 85.1643 95.0505 84.1002C95.7876 83.146 96.4885 82.1602 97.1532 81.1563V55.711L99.8664 51.189L97.1532 46.667ZM37.7341 33.6075C37.9421 33.4357 38.1547 33.2729 38.3717 33.1146C42.2807 30.1681 47.0427 28.5744 51.9377 28.5744C56.8328 28.5744 61.5948 30.1681 65.5037 33.1146C65.7208 33.2729 65.9559 33.4357 66.1413 33.6075C67.3892 34.6142 68.5261 35.7511 69.5328 36.999C69.7047 37.207 69.8674 37.4196 70.0257 37.6366C72.507 40.9282 74.0339 44.8395 74.4392 48.9416C74.5899 50.4452 74.5899 51.96 74.4392 53.4636C74.1676 56.1828 73.4013 58.8294 72.1782 61.2731L65.151 54.2459C65.2157 53.988 65.267 53.7269 65.3047 53.4636C65.5641 51.9674 65.5641 50.4378 65.3047 48.9416C65.267 48.6784 65.2157 48.4172 65.151 48.1593C64.8284 46.7403 64.2754 45.3839 63.514 44.1438C63.3739 43.9086 63.2292 43.6916 63.0618 43.4609C62.1456 42.1348 60.9965 40.9857 59.6703 40.0694C59.4488 39.9067 59.2181 39.7619 58.9875 39.6172C56.861 38.3215 54.4189 37.6361 51.9287 37.6361C49.4385 37.6361 46.9964 38.3215 44.8698 39.6172C44.6347 39.7574 44.4176 39.9021 44.187 40.0694C42.8608 40.9857 41.7117 42.1348 40.7955 43.4609C40.6327 43.6825 40.488 43.9131 40.3433 44.1438C39.5819 45.3839 39.029 46.7403 38.7063 48.1593C38.6416 48.4172 38.5903 48.6784 38.5526 48.9416C38.2933 50.4378 38.2933 51.9674 38.5526 53.4636C38.5903 53.7269 38.6416 53.988 38.7063 54.2459L31.6882 61.2595C30.4651 58.8158 29.6988 56.1692 29.4272 53.45C29.2765 51.9465 29.2765 50.4316 29.4272 48.928C29.8325 44.826 31.3594 40.9147 33.8407 37.623C33.9989 37.406 34.1617 37.1708 34.3336 36.9854C35.3403 35.7376 36.4772 34.6006 37.7251 33.5939L37.7341 33.6075ZM56.4009 59.0573C56.1589 59.198 55.9099 59.3263 55.6548 59.4417C54.4852 59.9698 53.2165 60.2429 51.9332 60.2429C50.6499 60.2429 49.3812 59.9698 48.2116 59.4417C47.9565 59.3263 47.7075 59.198 47.4655 59.0573C46.0484 58.2552 44.8761 57.0829 44.074 55.6658C43.9333 55.4238 43.805 55.1747 43.6896 54.9197C43.1601 53.7504 42.8862 52.4817 42.8862 51.1981C42.8862 49.9145 43.1601 48.6457 43.6896 47.4765C43.8047 47.2184 43.933 46.9663 44.074 46.7213C44.8761 45.3042 46.0484 44.1319 47.4655 43.3298C47.7075 43.1892 47.9565 43.0609 48.2116 42.9454C49.3812 42.4173 50.6499 42.1442 51.9332 42.1442C53.2165 42.1442 54.4852 42.4173 55.6548 42.9454C55.9099 43.0609 56.1589 43.1892 56.4009 43.3298C57.8246 44.1293 59.0034 45.3019 59.8105 46.7213C59.9512 46.9634 60.0795 47.2124 60.1949 47.4674C60.7244 48.6367 60.9983 49.9055 60.9983 51.189C60.9983 52.4726 60.7244 53.7414 60.1949 54.9106C60.0795 55.1657 59.9512 55.4147 59.8105 55.6568C59.0084 57.0738 57.8361 58.2462 56.419 59.0483L56.4009 59.0573ZM29.3232 78.321V95.5047C26.8343 94.2299 24.4565 92.749 22.2146 91.0776C21.1429 90.2772 20.0983 89.4316 19.0944 88.5453C18.8909 88.3689 18.6965 88.1926 18.4975 88.0117C17.8946 87.4751 17.3158 86.9234 16.7611 86.3566C16.2064 85.7899 15.6547 85.2111 15.106 84.6202C14.9252 84.4212 14.7488 84.2268 14.5724 84.0233C13.668 83.0194 12.8405 81.9748 12.0401 80.9031C11.7688 80.5368 11.4975 80.166 11.2352 79.7907V55.711L8.522 51.189L11.2352 46.667V22.5829C11.4975 22.2075 11.7688 21.8367 12.0401 21.4705C12.8405 20.3987 13.6861 19.3542 14.5724 18.3503C14.7488 18.1468 14.9252 17.9523 15.106 17.7534C15.6426 17.1504 16.1943 16.5716 16.7611 16.0169C17.3278 15.4622 17.9067 14.9105 18.4975 14.3619C18.6965 14.181 18.8909 14.0046 19.0944 13.8283C20.0983 12.9239 21.1429 12.0964 22.2146 11.296C24.4565 9.62453 26.8343 8.14368 29.3232 6.86892V24.0525L35.143 29.8769C34.935 30.0396 34.7225 30.207 34.519 30.3833C33.904 30.8943 33.3116 31.4369 32.7464 32.0022C32.1811 32.5674 31.6385 33.1553 31.1275 33.7748C30.9511 33.9783 30.7838 34.1908 30.621 34.3989C29.7823 35.4655 29.0264 36.5948 28.36 37.7768C26.4079 41.1967 25.2301 45.0033 24.9097 48.928H24.8148C24.2151 48.928 23.64 49.1663 23.216 49.5903C22.792 50.0143 22.5538 50.5894 22.5538 51.189C22.5538 51.7887 22.792 52.3638 23.216 52.7878C23.64 53.2118 24.2151 53.45 24.8148 53.45H24.9097C25.2301 57.3748 26.4079 61.1814 28.36 64.6013C29.0264 65.7833 29.7823 66.9126 30.621 67.9792C30.7838 68.1872 30.9511 68.3998 31.1275 68.6033C31.6385 69.2183 32.1811 69.8106 32.7464 70.3759C33.3116 70.9411 33.904 71.4838 34.519 71.9948C34.7225 72.1711 34.935 72.3384 35.143 72.5012L29.3232 78.321ZM38.3672 69.277C38.1501 69.1188 37.915 68.956 37.7296 68.7841C36.4817 67.7774 35.3448 66.6405 34.3381 65.3926C34.1663 65.1846 34.0035 64.9721 33.8452 64.755L40.3659 58.2479C40.5061 58.483 40.6508 58.7001 40.8181 58.9307C41.7344 60.2569 42.8834 61.406 44.2096 62.3222C44.4312 62.485 44.6618 62.6297 44.8924 62.7744L38.3672 69.277ZM51.9332 73.799C48.4382 73.8043 44.99 72.9945 41.8627 71.434L48.8899 64.4069C50.8922 64.871 52.9742 64.871 54.9765 64.4069L62.0037 71.434C58.8764 72.9945 55.4282 73.8043 51.9332 73.799V73.799ZM66.1323 68.7796C65.9243 68.9515 65.7117 69.1143 65.4947 69.2725L58.992 62.7699C59.2272 62.6297 59.4442 62.485 59.6749 62.3177C61.001 61.4015 62.1501 60.2524 63.0664 58.9262C63.2292 58.7046 63.3739 58.474 63.5186 58.2434L70.0212 64.746C69.8629 64.9631 69.7001 65.1756 69.5283 65.3836C68.5216 66.6315 67.3847 67.7684 66.1368 68.7751L66.1323 68.7796ZM92.6312 55.711V79.7952C92.3689 80.1705 92.0976 80.5414 91.8263 80.9076C91.0259 81.9793 90.1803 83.0239 89.294 84.0278C89.1176 84.2313 88.9412 84.4258 88.7604 84.6247C88.2238 85.2277 87.6721 85.8065 87.1053 86.3612C86.5386 86.9159 85.9597 87.4676 85.3689 88.0162C85.1699 88.1971 84.9755 88.3735 84.772 88.5498C83.7681 89.4542 82.7235 90.2817 81.6518 91.0821C79.4099 92.7536 77.0321 94.2344 74.5432 95.5092V78.3256L68.7234 72.4967C68.9314 72.3339 69.1439 72.1666 69.3474 71.9902C69.9624 71.4793 70.5548 70.9366 71.12 70.3714C71.6853 69.8061 72.2279 69.2137 72.7389 68.5987C72.9153 68.3953 73.0826 68.1827 73.2454 67.9747C74.0841 66.9081 74.84 65.7788 75.5064 64.5968C77.4585 61.1769 78.6363 57.3703 78.9567 53.4455H79.0516C79.6513 53.4455 80.2264 53.2073 80.6504 52.7833C81.0744 52.3593 81.3126 51.7842 81.3126 51.1845C81.3126 50.5849 81.0744 50.0098 80.6504 49.5858C80.2264 49.1617 79.6513 48.9235 79.0516 48.9235H78.9567C78.6363 44.9988 77.4585 41.1921 75.5064 37.7723C74.84 36.5902 74.0841 35.461 73.2454 34.3943C73.0826 34.1863 72.9153 33.9738 72.7389 33.7703C72.2279 33.1553 71.6853 32.5629 71.12 31.9977C70.5548 31.4324 69.9624 30.8898 69.3474 30.3788C69.1439 30.2024 68.9314 30.0351 68.7234 29.8723L74.5432 24.0525V6.86892C77.0321 8.14368 79.4099 9.62453 81.6518 11.296C82.7235 12.0964 83.7681 12.942 84.772 13.8283C84.9755 14.0046 85.1699 14.181 85.3689 14.3619C85.9718 14.9015 86.5506 15.4532 87.1053 16.0169C87.66 16.5807 88.2087 17.1595 88.7513 17.7534C88.9322 17.9523 89.1086 18.1468 89.2849 18.3503C90.1893 19.3542 91.0168 20.3987 91.8172 21.4705C92.0886 21.8367 92.3599 22.2075 92.6222 22.5829V46.667L95.3354 51.189L92.6312 55.711Z" fill="#F7941D" fill-opacity="0.9" stroke="#F7941D" stroke-opacity="0.9" stroke-width="2" stroke-miterlimit="10" mask="url(#path-3-inside-3_221_13)"/>
</svg>
