<svg width="46" height="43" viewBox="0 0 46 43" fill="none" xmlns="http://www.w3.org/2000/svg">
<path d="M36.1801 28.0846L36.2194 28.1278L36.2619 28.1678C38.2107 30.0009 40.1397 31.834 42.0491 33.667L42.0952 33.7113L42.1449 33.7515C42.3611 33.9263 42.529 34.1388 42.642 34.3712C42.7549 34.6032 42.8117 34.8519 42.8117 35.1008C42.8117 35.3499 42.7549 35.5986 42.642 35.8306C42.529 36.0629 42.3611 36.2755 42.1449 36.4502L42.0982 36.488L42.0546 36.5294C41.75 36.8189 41.4262 37.1181 41.0936 37.4253C40.293 38.165 39.4414 38.9518 38.6826 39.7649C38.1474 40.3267 37.4736 40.7655 36.7133 41.0393C35.9507 41.3139 35.1274 41.4128 34.3132 41.3258L34.2942 41.3238L34.2752 41.3223C31.3627 41.0859 28.5315 40.3006 25.9472 39.0147L25.927 39.0047L25.9066 38.9953C19.8895 36.2234 14.5697 32.2667 10.2992 27.3937L10.29 27.3833L10.2807 27.3731C7.0455 23.8159 4.48409 19.7579 2.7067 15.3791L2.69847 15.3588L2.68966 15.3388C1.82037 13.3644 1.41973 11.2359 1.51331 9.10311C1.57244 8.07137 2.04689 7.08355 2.86463 6.35043C3.61004 5.68375 4.36822 4.95614 5.10151 4.25242C5.5953 3.77854 6.07781 3.31549 6.53753 2.88917L6.57876 2.85093L6.61702 2.8097C6.79641 2.61642 7.02171 2.45671 7.28073 2.3456C7.53989 2.23443 7.82401 2.17578 8.11348 2.17578C8.40295 2.17578 8.68706 2.23443 8.94622 2.3456C9.20525 2.45671 9.43055 2.61642 9.60993 2.8097L9.64575 2.8483L9.68419 2.88429C10.3507 3.5083 10.9996 4.12801 11.6503 4.74952C11.9771 5.06156 12.3043 5.37406 12.6344 5.68778L15.4891 8.40048L15.539 8.44789L15.593 8.49052C15.813 8.66415 15.984 8.87689 16.0992 9.10999C16.2141 9.34277 16.272 9.59281 16.272 9.84313C16.272 10.0934 16.2142 10.3434 16.0992 10.5762L17.4441 11.2405L16.0992 10.5762C15.984 10.8093 15.813 11.0221 15.593 11.1957L15.5354 11.2412L15.4825 11.2921L15.4728 11.3014C14.2927 12.4366 13.1381 13.5473 11.9575 14.643C11.5693 14.9551 11.2885 15.3951 11.1819 15.9018C11.074 16.4144 11.156 16.942 11.4032 17.3934C12.2945 19.2868 13.4611 21.0487 14.8672 22.6279C17.5218 25.827 20.7091 28.5865 24.3001 30.7981L24.3093 30.8037L24.3185 30.8092C24.765 31.0755 25.2227 31.2954 25.6323 31.4864C25.7222 31.5283 25.8091 31.5686 25.8934 31.6077C26.1973 31.7484 26.4692 31.8743 26.7365 32.0119C27.1966 32.2799 27.7353 32.3751 28.2546 32.288C28.7585 32.2035 29.2291 31.9494 29.5749 31.5544C30.7468 30.4142 31.9343 29.286 33.1244 28.1688L33.1675 28.1284L33.2073 28.0846C33.3837 27.8907 33.6068 27.73 33.8643 27.6181C34.122 27.5062 34.4051 27.447 34.6937 27.447C34.9824 27.447 35.2655 27.5062 35.5231 27.6181C35.7806 27.73 36.0036 27.8907 36.1801 28.0846Z" fill="#F7941D" stroke="#0F0D0D" stroke-width="3"/>
<path d="M44.5104 19.2551L44.5151 19.2655L44.5203 19.2757C44.5751 19.3839 44.6059 19.5003 44.6117 19.6182C44.6175 19.7361 44.5984 19.8543 44.5548 19.9662C44.5112 20.0781 44.4435 20.1823 44.3545 20.2719C44.2662 20.3609 44.1587 20.4335 44.0377 20.4843C43.7984 20.5793 43.5282 20.5822 43.2864 20.492C43.0456 20.4023 42.8586 20.2301 42.7573 20.0198C39.1504 12.0184 32.4251 5.66327 24.0008 2.28124L24.0008 2.28121L23.9958 2.27926C23.8736 2.23172 23.7641 2.16213 23.6733 2.0758C23.5825 1.9895 23.5122 1.88835 23.4651 1.77896C23.418 1.66964 23.3947 1.55344 23.3958 1.43688C23.3968 1.32035 23.4223 1.20447 23.4714 1.09579L23.4746 1.08872L23.4776 1.08155C23.5675 0.864896 23.7467 0.682789 23.9849 0.58201C24.2208 0.48219 24.4899 0.473067 24.7332 0.556977C33.6294 4.12724 40.7157 10.832 44.5104 19.2551Z" fill="#F7941D" stroke="#0F0D0D"/>
<path d="M34.71 20.7481C32.4992 15.8566 28.3837 11.9764 23.235 9.91454C23.001 9.81628 22.8232 9.6394 22.7311 9.42793C22.6404 9.21985 22.6366 8.98853 22.72 8.7784C22.8164 8.57663 22.9918 8.40935 23.2191 8.31608C23.4465 8.22272 23.7038 8.21297 23.9388 8.28908C29.5344 10.534 33.9894 14.7491 36.3752 20.0415C36.4687 20.2503 36.4742 20.4834 36.3912 20.6954C36.308 20.9078 36.1395 21.0891 35.9123 21.1955C35.8003 21.2461 35.6773 21.2738 35.5515 21.2762C35.3698 21.2678 35.1956 21.2127 35.0475 21.1189C34.8985 21.0245 34.7829 20.8954 34.71 20.7481Z" fill="#F7941D" stroke="#0F0D0D"/>
</svg>
